<?xml version="1.0" standalone="no"?>
<!DOCTYPE svg PUBLIC "-//W3C//DTD SVG 1.1//EN" "http://www.w3.org/Graphics/SVG/1.1/DTD/svg11.dtd" >
<svg xmlns="http://www.w3.org/2000/svg">
<metadata>Generated by IcoMoon</metadata>
<defs>
<font id="cloudview" horiz-adv-x="1024">
<font-face units-per-em="1024" ascent="960" descent="-64" />
<missing-glyph horiz-adv-x="1024" />
<glyph unicode="&#x20;" horiz-adv-x="512" d="" />
<glyph unicode="&#xe900;" glyph-name="NewCameraIcons-01" d="M512-38.256c-268.112 0-486.24 218.128-486.24 486.256 0 268.112 218.128 486.24 486.24 486.24 268.128 0 486.256-218.128 486.256-486.24 0-268.128-218.128-486.256-486.256-486.256zM512 863.872c-229.312 0-415.872-186.56-415.872-415.872s186.56-415.872 415.872-415.872c229.312 0 415.872 186.56 415.872 415.872s-186.56 415.872-415.872 415.872zM442.336 343.6l-11.728 17.168c-0.912 1.328-1.872 2.672-2.848 4-0.592 0.8-1.152 1.616-1.744 2.384l-9.264 12.72c-0.944 1.28-1.936 2.592-2.96 3.872-0.592 0.816-1.216 1.616-1.824 2.4l-4.832 6.288c-2.8 3.696-5.904 7.664-9.84 12.464l-2 2.464c-2.592 3.232-5.296 6.56-8 9.776l-5.040 6.032c-1.104 1.36-2.32 2.736-3.504 4.080l-1.664 1.936-5.152 5.888c0 0-1.984 2.24-2.4 2.752l24.96 29.040c0.688-0.48 3.36-2.4 3.36-2.4l6.832-4.928c0.784-0.56 1.568-1.12 2.368-1.712 1.44-1.040 2.88-2.112 4.272-3.184l6.736-5.056c3.488-2.592 6.928-5.296 10.256-7.904l2.928-2.32c4.88-3.808 9.152-7.184 12.976-10.4 0 0 7.92-6.528 8.64-7.12 1.424-1.12 2.832-2.32 4.192-3.504l7.84-6.816 3.104 3.696c3.36 4 6.784 7.984 10.24 11.952 13.264 15.28 26.624 29.728 39.696 42.96 15.008 15.168 29.12 28.336 43.184 40.16 3.744 3.168 7.648 6.336 11.536 9.408l5.936 4.624 6.032 4.432c1.328 0.992 2.656 1.936 4.016 2.88l2.144 1.504c1.984 1.408 4.096 2.832 6.192 4.224 2.96 1.984 6.064 3.904 9.104 5.776l21.008-31.568c-2.224-1.776-4.464-3.632-6.688-5.568-1.632-1.376-3.28-2.912-4.928-4.416l-1.2-1.056c-1.248-1.152-2.496-2.288-3.728-3.52l-4.688-4.512-4.736-4.8c-3.088-3.2-6.224-6.48-9.248-9.776-11.408-12.416-22.752-26.144-34.784-41.952-10.56-13.92-20.96-28.592-31.744-44.864-5.024-7.632-10.064-15.408-14.88-23.088l-7.104-11.664-3.472-5.84c-0.688-1.168-2.8-4.592-4.224-6.944l-53.328 0.032zM800.4 567.728v-263.984c0-29.184-24.592-52.784-54.992-52.784h-466.896c-30.336 0-54.912 23.6-54.912 52.784v263.984c0 29.152 24.56 52.8 54.912 52.816h97.424l41.408 71.776c9.664 16.768 28.096 27.2 48.048 27.2h93.296c20 0 38.368-10.432 48.080-27.216l41.328-71.776h97.344c30.368 0 54.96-23.632 54.96-52.8zM508.944 287.664c89.104 0 161.328 72.24 161.328 161.328s-72.24 161.312-161.328 161.312c-89.088 0-161.312-72.224-161.312-161.312 0-89.12 72.208-161.328 161.312-161.328z" />
<glyph unicode="&#xe901;" glyph-name="NewCameraIcons-02" d="M512-38.256c-268.112 0-486.24 218.128-486.24 486.256 0 268.112 218.128 486.24 486.24 486.24 268.128 0 486.256-218.128 486.256-486.24 0-268.128-218.128-486.256-486.256-486.256zM512 863.872c-229.312 0-415.872-186.56-415.872-415.872s186.56-415.872 415.872-415.872c229.312 0 415.872 186.56 415.872 415.872s-186.56 415.872-415.872 415.872zM800.4 567.728v-263.984c0-29.184-24.592-52.784-54.992-52.784h-466.896c-30.336 0-54.912 23.6-54.912 52.784v263.984c0 29.152 24.56 52.8 54.912 52.816h97.424l41.408 71.776c9.664 16.768 28.096 27.2 48.048 27.2h93.296c20 0 38.368-10.432 48.080-27.216l41.328-71.776h97.344c30.368 0 54.96-23.632 54.96-52.8zM508.944 287.664c89.104 0 161.328 72.24 161.328 161.328s-72.24 161.312-161.328 161.312c-89.088 0-161.312-72.224-161.312-161.312 0-89.12 72.208-161.328 161.312-161.328zM557.904 528.736h-103.808c-44.416 0-80.432-36-80.432-80.448s36.016-80.448 80.432-80.448h103.808c44.4 0 80.432 36 80.432 80.448s-36 80.448-80.432 80.448zM454.096 387.248c-33.68 0-61.008 27.328-61.008 61.040 0 33.696 27.328 61.040 61.008 61.040 33.712 0 61.040-27.344 61.040-61.040 0-33.712-27.328-61.040-61.040-61.040z" />
<glyph unicode="&#xe902;" glyph-name="NewCameraIcons-03" d="M512 934.24c-268.112 0-486.24-218.128-486.24-486.24 0-268.128 218.128-486.256 486.24-486.256 268.128 0 486.256 218.128 486.256 486.256 0 268.112-218.128 486.24-486.256 486.24zM512 32.128c-229.312 0-415.872 186.56-415.872 415.872s186.56 415.872 415.872 415.872c229.312 0 415.872-186.56 415.872-415.872s-186.56-415.872-415.872-415.872zM745.44 624h-97.344l-41.328 70.288c-9.712 16.768-28.080 25.712-48.080 25.712h-93.296c-19.952 0-38.368-8.944-48.048-25.712l-41.408-70.288h-97.424c-30.336 0-54.512-27.104-54.512-56.272v-263.984c0-29.184 24.176-47.744 54.512-47.744h466.928c30.368 0 54.56 18.56 54.56 47.744v263.984c0 29.168-24.192 56.272-54.56 56.272zM508.944 287.664c-89.088 0-161.312 72.24-161.312 161.328s72.224 161.312 161.312 161.312c89.104 0 161.328-72.224 161.328-161.312 0.016-89.12-72.224-161.328-161.328-161.328zM545.472 345.312c0-18.433-14.943-33.376-33.376-33.376s-33.376 14.943-33.376 33.376c0 18.433 14.943 33.376 33.376 33.376s33.376-14.943 33.376-33.376zM512 587.552c-24.816 0-44.976-20.144-44.976-44.976 0-19.856 28.72-107.584 40.288-142 1.504-4.528 7.872-4.528 9.408 0 11.536 34.416 40.256 122.144 40.256 142 0 24.832-20.128 44.976-44.976 44.976z" />
<glyph unicode="&#xe903;" glyph-name="NewCameraIcons-04" d="M512 934.24c-268.112 0-486.24-218.128-486.24-486.24 0-268.128 218.128-486.256 486.24-486.256 268.128 0 486.256 218.128 486.256 486.256 0 268.112-218.128 486.24-486.256 486.24zM512 32.128c-229.312 0-415.872 186.56-415.872 415.872s186.56 415.872 415.872 415.872c229.312 0 415.872-186.56 415.872-415.872s-186.56-415.872-415.872-415.872zM745.44 620.528h-97.344l-41.328 71.776c-9.696 16.784-28.080 27.216-48.080 27.216h-93.296c-19.952 0-38.384-10.432-48.048-27.2l-41.408-71.776h-97.424c-30.352-0.016-54.912-23.664-54.912-52.816v-263.984c0-29.184 24.576-52.784 54.912-52.784h466.912c30.384 0 54.992 23.6 54.992 52.784v263.984c-0.016 29.168-24.608 52.8-54.976 52.8zM508.944 287.664c-89.104 0-161.312 72.224-161.312 161.328 0 89.088 72.224 161.312 161.312 161.312 89.104 0 161.328-72.224 161.328-161.312 0.016-89.104-72.224-161.328-161.328-161.328zM546.704 448l64.448 64.432c9.584 9.584 9.584 25.12 0 34.688-9.6 9.584-25.104 9.584-34.688 0l-64.464-64.416-64.496 64.432c-9.584 9.584-25.104 9.584-34.704 0-9.584-9.584-9.584-25.12 0-34.688l64.464-64.448-64.464-64.432c-9.584-9.568-9.584-25.12 0-34.688 4.8-4.784 11.056-7.184 17.376-7.184 6.272 0 12.528 2.384 17.328 7.184l64.496 64.432 64.464-64.432c4.784-4.784 11.088-7.184 17.344-7.184 6.288 0 12.592 2.384 17.376 7.184 9.6 9.568 9.6 25.12 0 34.688l-64.48 64.432z" />
<glyph unicode="&#xe904;" glyph-name="NewCameraIcons-05" d="M512-38.256c-268.112 0-486.24 218.128-486.24 486.256 0 268.112 218.128 486.24 486.24 486.24 268.128 0 486.256-218.128 486.256-486.24 0-268.128-218.128-486.256-486.256-486.256zM512 863.872c-229.312 0-415.872-186.56-415.872-415.872s186.56-415.872 415.872-415.872c229.312 0 415.872 186.56 415.872 415.872s-186.56 415.872-415.872 415.872zM800.4 567.728v-263.984c0-29.184-24.592-52.784-54.992-52.784h-466.896c-30.336 0-54.912 23.6-54.912 52.784v263.984c0 29.152 24.56 52.8 54.912 52.816h97.424l41.408 71.776c9.664 16.768 28.096 27.2 48.048 27.2h93.296c20 0 38.368-10.432 48.080-27.216l41.328-71.776h97.344c30.368 0 54.96-23.632 54.96-52.8zM508.944 287.664c89.104 0 161.328 72.24 161.328 161.328s-72.24 161.312-161.328 161.312c-89.088 0-161.312-72.224-161.312-161.312 0-89.12 72.208-161.328 161.312-161.328zM508.624 448.192c34.624 0 63.008 28.336 63.008 62.992s-28.352 63.008-63.008 63.008-63.008-28.336-63.008-63.008c0-34.656 28.368-62.992 63.008-62.992zM600.912 444.096c-4.72 4.72-11.312 7.248-20.8 7.248h-16.048c-1.264 0-2.832-0.64-3.776-1.264-14.496-12.304-32.752-18.896-51.664-18.896s-37.152 6.624-51.664 18.896c-0.928 0.944-2.496 1.264-3.76 1.264h-16.048c-9.456 0-16.080-2.208-20.816-7.248-7.872-8.192-7.232-21.088-6.608-35.904 0.32-4.096 0.32-8.496 0.32-12.912v-29.6c0-3.152 2.528-5.664 5.664-5.664h185.52c3.168 0 5.664 2.512 5.664 5.664v29.6c0 4.4 0.32 8.816 0.32 12.912 0.944 14.816 1.248 27.712-6.304 35.904z" />
<glyph unicode="&#xe905;" glyph-name="Icons-22" d="M215.36 280.72v190.96h25.232v-78.416h99.28v78.416h25.264v-190.96h-25.264v90h-99.28v-90h-25.232zM520.928 303.248v-22.528h-126.208c-0.192 5.648 0.72 11.056 2.72 16.288 3.216 8.592 8.368 17.056 15.44 25.392 7.088 8.336 17.296 17.984 30.688 28.912 20.752 17.024 34.768 30.512 42.064 40.464 7.296 9.936 10.944 19.344 10.944 28.192 0 9.296-3.312 17.136-9.952 23.52-6.624 6.384-15.296 9.568-25.984 9.568-11.296 0-20.336-3.376-27.088-10.144-6.768-6.784-10.192-16.16-10.304-28.144l-24.096 2.48c1.648 17.984 7.872 31.664 18.624 41.088 10.768 9.424 25.216 14.128 43.376 14.128 18.336 0 32.832-5.072 43.504-15.232 10.688-10.16 16.032-22.752 16.032-37.776 0-7.632-1.584-15.152-4.704-22.544-3.104-7.36-8.288-15.152-15.568-23.312-7.232-8.16-19.296-19.36-36.144-33.616-14.064-11.808-23.088-19.824-27.104-24.016-3.984-4.208-7.28-8.464-9.888-12.704h93.648zM667.744 424.912l-23.312-1.824c-2.112 9.216-5.056 15.888-8.88 20.064-6.336 6.688-14.144 10.032-23.456 10.032-7.456 0-14.016-2.080-19.664-6.256-7.392-5.376-13.184-13.248-17.472-23.6-4.256-10.336-6.448-25.040-6.64-44.144 5.664 8.592 12.56 14.992 20.736 19.152 8.128 4.16 16.704 6.24 25.648 6.24 15.648 0 28.944-5.744 39.936-17.248 10.976-11.52 16.464-26.384 16.464-44.624 0-11.984-2.576-23.12-7.76-33.408-5.136-10.288-12.24-18.176-21.28-23.632-9.008-5.472-19.28-8.208-30.736-8.208-19.568 0-35.488 7.184-47.808 21.552-12.336 14.368-18.512 38.064-18.512 71.056 0 36.912 6.848 63.744 20.464 80.512 11.888 14.592 27.92 21.872 48.064 21.872 15.024 0 27.328-4.208 36.944-12.624 9.6-8.416 15.344-20.048 17.264-34.912zM572 342.592c0-8.080 1.712-15.792 5.136-23.184 3.424-7.376 8.24-12.992 14.4-16.88 6.16-3.872 12.624-5.792 19.424-5.792 9.872 0 18.384 4 25.504 11.984 7.12 8 10.704 18.832 10.704 32.576 0 13.2-3.536 23.6-10.56 31.2s-15.872 11.392-26.576 11.392c-10.592 0-19.6-3.792-26.976-11.392s-11.056-17.568-11.056-29.904zM769.632 280.72v45.728h-82.88v21.488l87.152 123.744h19.152v-123.744h25.776v-21.488h-25.776v-45.728h-23.424zM769.632 347.936v86.096l-59.808-86.096h59.808zM130.208 595.264h227.68c10.096 0 19.024 4.576 25.152 11.664 7.072 6.128 11.664 15.040 11.664 25.168v205.904c0 8.832-3.52 17.296-9.744 23.552l-58.656 58.784c-6.272 6.272-14.752 9.808-23.6 9.808h-169.040c-10.096 0-19.040-4.592-25.152-11.664-7.072-6.112-11.68-15.056-11.68-25.152v-264.688c-0.016-18.464 14.928-33.376 33.376-33.376zM330.384 876.208l22.384-20.272v-41.376h-22.384v61.648zM292.608 881.68h22.384v-48.112h-22.384v48.112zM255.232 881.68h22.368v-48.112h-22.368v48.112zM217.664 881.68h22.368v-48.112h-22.368v48.112zM180.080 881.68h22.368v-48.112h-22.368v48.112zM142.080 881.68h22.368v-48.112h-22.368v48.112zM137.184 749.296c0 5.424 4.4 9.824 9.824 9.824h198.624c5.44 0 9.824-4.4 9.824-9.824v-118.96c0-5.44-4.384-9.824-9.824-9.824h-198.624c-5.424 0-9.824 4.384-9.824 9.824v118.96zM404 790.768v-134.896h492.72v-555.136h-765.712v488.592h-30.448v-623.456h826.624v824.896h-523.184zM481.68 693.296c0-1.728-1.76-3.456-3.488-3.456h-31.344c-1.744 0-3.472 1.728-3.472 3.456v53.952c0 1.744 1.712 3.488 3.472 3.488h31.344c1.712 0 3.488-1.744 3.488-3.488v-53.952zM584.336 692.432c0-1.744-1.712-3.472-3.488-3.472h-31.312c-1.728 0-3.504 1.728-3.504 3.472v53.952c0 1.744 1.76 3.488 3.504 3.488h31.312c1.76 0 3.488-1.744 3.488-3.488v-53.952zM687.888 692.432c0-1.744-1.744-3.472-3.488-3.472h-31.312c-1.744 0-3.488 1.728-3.488 3.472v53.952c0 1.744 1.728 3.488 3.488 3.488h31.312c1.728 0 3.488-1.744 3.488-3.488v-53.952zM791.44 692.432c0-1.744-1.728-3.472-3.488-3.472h-31.312c-1.728 0-3.504 1.728-3.504 3.472v53.952c0 1.744 1.76 3.488 3.504 3.488h31.312c1.744 0 3.488-1.744 3.488-3.488v-53.952zM894.992 692.432c0-1.744-1.712-3.472-3.488-3.472h-31.328c-1.728 0-3.488 1.728-3.488 3.472v53.952c0 1.744 1.744 3.488 3.488 3.488h31.328c1.76 0 3.488-1.744 3.488-3.488v-53.952zM171.008 10.24c0-1.728-1.712-3.472-3.456-3.472h-30.464c-1.712 0-3.488 1.744-3.488 3.472v53.968c0 1.728 1.76 3.456 3.488 3.456h31.328c1.728 0 3.456-1.728 3.456-3.456l-0.864-53.968zM274.576 10.24c0-1.728-1.744-3.472-3.488-3.472h-31.328c-1.744 0-3.472 1.744-3.472 3.472v53.968c0 1.728 1.712 3.456 3.472 3.456h31.328c1.728 0 3.488-1.728 3.488-3.456v-53.968zM378.128 10.24c0-1.728-1.744-3.472-3.472-3.472h-31.328c-1.728 0-3.488 1.744-3.488 3.472v53.968c0 1.728 1.744 3.456 3.488 3.456h31.328c1.712 0 3.472-1.728 3.472-3.456v-53.968zM481.68 10.24c0-1.728-1.76-3.472-3.488-3.472h-31.344c-1.744 0-3.472 1.744-3.472 3.472v53.968c0 1.728 1.712 3.456 3.472 3.456h31.344c1.712 0 3.488-1.728 3.488-3.456v-53.968zM584.336 10.24c0-1.728-1.712-3.472-3.488-3.472h-31.312c-1.728 0-3.504 1.744-3.504 3.472v53.968c0 1.728 1.76 3.456 3.504 3.456h31.312c1.76 0 3.488-1.728 3.488-3.456v-53.968zM687.888 10.24c0-1.728-1.744-3.472-3.488-3.472h-31.312c-1.744 0-3.488 1.744-3.488 3.472v53.968c0 1.728 1.728 3.456 3.488 3.456h31.312c1.728 0 3.488-1.728 3.488-3.456v-53.968zM791.44 10.24c0-1.728-1.728-3.472-3.488-3.472h-31.312c-1.728 0-3.504 1.744-3.504 3.472v53.968c0 1.728 1.76 3.456 3.504 3.456h31.312c1.744 0 3.488-1.728 3.488-3.456v-53.968zM894.992 10.24c0-1.728-1.712-3.472-3.488-3.472h-31.328c-1.728 0-3.488 1.744-3.488 3.472v53.968c0 1.728 1.744 3.456 3.488 3.456h31.328c1.76 0 3.488-1.728 3.488-3.456v-53.968z" />
<glyph unicode="&#xe906;" glyph-name="Icons-23" d="M228.272 288.144v190.96h25.232v-78.416h99.28v78.416h25.264v-190.96h-25.264v90h-99.28v-90h-25.232zM533.824 310.672v-22.528h-126.208c-0.192 5.648 0.72 11.056 2.72 16.288 3.216 8.592 8.368 17.056 15.44 25.392 7.088 8.336 17.296 17.984 30.688 28.912 20.752 17.024 34.768 30.512 42.064 40.464 7.296 9.936 10.944 19.344 10.944 28.192 0 9.296-3.312 17.136-9.952 23.52-6.624 6.384-15.296 9.568-25.984 9.568-11.296 0-20.336-3.376-27.088-10.144-6.768-6.784-10.192-16.16-10.304-28.144l-24.096 2.48c1.648 17.984 7.872 31.664 18.624 41.088 10.768 9.424 25.216 14.128 43.376 14.128 18.336 0 32.832-5.072 43.504-15.232 10.688-10.16 16.032-22.752 16.032-37.776 0-7.632-1.584-15.152-4.704-22.544-3.104-7.36-8.288-15.152-15.568-23.312-7.232-8.16-19.296-19.36-36.144-33.616-14.064-11.808-23.088-19.824-27.104-24.016-3.984-4.208-7.28-8.464-9.888-12.704h93.648zM680.656 432.336l-23.312-1.824c-2.112 9.216-5.056 15.888-8.88 20.064-6.336 6.688-14.144 10.032-23.456 10.032-7.456 0-14.016-2.080-19.664-6.256-7.392-5.376-13.184-13.248-17.472-23.6-4.256-10.336-6.448-25.040-6.64-44.144 5.664 8.592 12.56 14.992 20.736 19.152 8.128 4.16 16.704 6.24 25.648 6.24 15.648 0 28.944-5.744 39.936-17.248 10.976-11.52 16.464-26.384 16.464-44.624 0-11.984-2.576-23.12-7.76-33.408-5.136-10.288-12.24-18.176-21.28-23.632-9.008-5.472-19.28-8.208-30.736-8.208-19.568 0-35.488 7.184-47.808 21.552-12.336 14.368-18.512 38.064-18.512 71.056 0 36.912 6.848 63.744 20.464 80.512 11.888 14.592 27.92 21.872 48.064 21.872 15.024 0 27.328-4.208 36.944-12.624 9.6-8.416 15.344-20.048 17.264-34.912zM584.912 350.016c0-8.080 1.712-15.792 5.136-23.184 3.424-7.376 8.24-12.992 14.4-16.88 6.16-3.872 12.624-5.792 19.424-5.792 9.872 0 18.384 4 25.504 11.984 7.12 8 10.704 18.832 10.704 32.576 0 13.2-3.536 23.6-10.56 31.2s-15.872 11.392-26.576 11.392c-10.592 0-19.6-3.792-26.976-11.392s-11.056-17.568-11.056-29.904zM782.528 288.144v45.728h-82.88v21.488l87.152 123.744h19.152v-123.744h25.776v-21.488h-25.776v-45.728h-23.424zM782.528 355.36v86.096l-59.808-86.096h59.808zM109.616 789.92v-821.92h823.664v821.92h-823.664zM863.024 745.696c0 1.728 1.744 3.456 3.488 3.456h31.2c1.728 0 3.472-1.728 3.472-3.456v-53.744c0-1.744-1.728-3.472-3.472-3.472h-31.2c-1.728 0-3.488 1.728-3.488 3.472v53.744zM759.856 745.696c0 1.728 1.728 3.456 3.488 3.456h31.2c1.728 0 3.456-1.728 3.456-3.456v-53.744c0-1.744-1.712-3.472-3.456-3.472h-31.2c-1.744 0-3.488 1.728-3.488 3.472v53.744zM656.704 745.696c0 1.728 1.712 3.456 3.456 3.456h31.2c1.744 0 3.488-1.728 3.488-3.456v-53.744c0-1.744-1.728-3.472-3.488-3.472h-31.2c-1.728 0-3.456 1.728-3.456 3.472v53.744zM553.52 745.696c0 1.728 1.728 3.456 3.472 3.456h31.2c1.728 0 3.488-1.728 3.488-3.456v-53.744c0-1.744-1.744-3.472-3.488-3.472h-31.2c-1.728 0-3.472 1.728-3.472 3.472v53.744zM451.2 746.576c0 1.728 1.744 3.456 3.488 3.456h31.2c1.728 0 3.472-1.728 3.472-3.456v-53.76c0-1.728-1.728-3.472-3.472-3.472h-31.2c-1.728 0-3.488 1.744-3.488 3.472v53.76zM348.032 746.576c0 1.728 1.728 3.456 3.488 3.456h31.2c1.728 0 3.456-1.728 3.456-3.456v-53.76c0-1.728-1.712-3.472-3.456-3.472h-31.2c-1.744 0-3.488 1.744-3.488 3.472v53.76zM244.88 746.576c0 1.728 1.712 3.456 3.456 3.456h31.2c1.744 0 3.488-1.728 3.488-3.456v-53.76c0-1.728-1.728-3.472-3.488-3.472h-31.2c-1.728 0-3.456 1.744-3.456 3.472v53.76zM141.68 746.576c0 1.728 1.728 3.456 3.472 3.456h31.2c1.728 0 3.488-1.728 3.488-3.456v-53.76c0-1.728-1.744-3.472-3.488-3.472h-30.336c-1.712 0-3.472 1.744-3.472 3.472l-0.864 53.76zM179.84 12.224c0-1.728-1.744-3.472-3.488-3.472h-30.336c-1.712 0-3.472 1.744-3.472 3.472v53.744c0 1.744 1.744 3.472 3.472 3.472h31.216c1.744 0 3.472-1.728 3.472-3.472l-0.864-53.744zM283.008 12.224c0-1.728-1.728-3.472-3.488-3.472h-31.2c-1.728 0-3.456 1.744-3.456 3.472v53.744c0 1.744 1.712 3.472 3.456 3.472h31.2c1.744 0 3.488-1.728 3.488-3.472v-53.744zM386.176 12.224c0-1.728-1.712-3.472-3.456-3.472h-31.2c-1.744 0-3.488 1.744-3.488 3.472v53.744c0 1.744 1.728 3.472 3.488 3.472h31.2c1.728 0 3.456-1.728 3.456-3.472v-53.744zM489.36 12.224c0-1.728-1.728-3.472-3.472-3.472h-31.2c-1.728 0-3.488 1.744-3.488 3.472v53.744c0 1.744 1.744 3.472 3.488 3.472h31.2c1.728 0 3.472-1.728 3.472-3.472v-53.744zM591.664 12.224c0-1.728-1.744-3.472-3.488-3.472h-31.2c-1.728 0-3.472 1.744-3.472 3.472v53.744c0 1.744 1.728 3.472 3.472 3.472h31.2c1.728 0 3.488-1.728 3.488-3.472v-53.744zM694.848 12.224c0-1.728-1.728-3.472-3.488-3.472h-31.2c-1.728 0-3.456 1.744-3.456 3.472v53.744c0 1.744 1.712 3.472 3.456 3.472h31.2c1.744 0 3.488-1.728 3.488-3.472v-53.744zM798 12.224c0-1.728-1.712-3.472-3.456-3.472h-31.2c-1.744 0-3.488 1.744-3.488 3.472v53.744c0 1.744 1.728 3.472 3.488 3.472h31.2c1.728 0 3.456-1.728 3.456-3.472v-53.744zM901.184 12.224c0-1.728-1.728-3.472-3.472-3.472h-31.2c-1.728 0-3.488 1.744-3.488 3.472v53.744c0 1.744 1.744 3.472 3.488 3.472h31.2c1.728 0 3.472-1.728 3.472-3.472v-53.744zM902.928 102.384h-762.976v553.152h762.976v-553.152z" />
<glyph unicode="&#xe907;" glyph-name="Icons_H264-NoIcon" d="M229.024 277.328v184.976h24.48v-75.952h96.144v75.952h24.464v-184.976h-24.464v87.184h-96.144v-87.184h-24.48zM525.024 299.152v-21.84h-122.272c-0.16 5.472 0.736 10.72 2.656 15.776 3.104 8.336 8.096 16.544 14.96 24.624 6.864 8.064 16.768 17.392 29.712 28 20.112 16.48 33.68 29.536 40.752 39.184 7.056 9.632 10.592 18.736 10.592 27.328 0 8.992-3.216 16.592-9.648 22.768-6.448 6.176-14.832 9.28-25.168 9.28-10.944 0-19.68-3.296-26.256-9.84-6.576-6.56-9.888-15.648-9.968-27.248l-23.344 2.4c1.6 17.408 7.616 30.672 18.032 39.792 10.448 9.12 24.448 13.68 42.016 13.68 17.76 0 31.792-4.912 42.16-14.752 10.336-9.84 15.536-22.048 15.536-36.592 0-7.408-1.52-14.688-4.544-21.824-3.024-7.152-8.064-14.688-15.072-22.592-7.024-7.904-18.704-18.752-35.008-32.544-13.632-11.44-22.384-19.2-26.256-23.28s-7.056-8.192-9.6-12.304h90.72zM667.248 416.992l-22.592-1.76c-2.016 8.912-4.88 15.392-8.576 19.424-6.16 6.48-13.712 9.712-22.72 9.712-7.232 0-13.6-2.016-19.040-6.064-7.152-5.216-12.8-12.816-16.912-22.832-4.128-10-6.272-24.272-6.416-42.768 5.456 8.336 12.144 14.512 20.048 18.56s16.192 6.048 24.848 6.048c15.152 0 28.048-5.584 38.688-16.72 10.624-11.152 15.952-25.552 15.952-43.232 0-11.6-2.496-22.384-7.504-32.352-4.992-9.968-11.872-17.6-20.624-22.896s-18.672-7.952-29.776-7.952c-18.928 0-34.352 6.976-46.304 20.896s-17.936 36.864-17.936 68.832c0 35.744 6.608 61.744 19.824 77.968 11.536 14.144 27.024 21.2 46.544 21.2 14.544 0 26.48-4.080 35.776-12.224 9.28-8.176 14.864-19.456 16.72-33.84zM574.512 337.264c0-7.824 1.664-15.328 4.976-22.464 3.328-7.152 7.968-12.608 13.936-16.336 5.968-3.744 12.24-5.616 18.816-5.616 9.584 0 17.824 3.872 24.72 11.616s10.336 18.256 10.336 31.536c0 12.784-3.408 22.864-10.208 30.224-6.832 7.344-15.408 11.040-25.744 11.040-10.256 0-18.976-3.68-26.128-11.040-7.136-7.376-10.704-17.024-10.704-28.96zM765.92 277.328v44.288h-80.272v20.816l84.416 119.872h18.544v-119.872h24.976v-20.816h-24.976v-44.288h-22.688zM765.92 342.432v83.408l-57.936-83.408h57.936zM451.344 797.92c-26.528 69.584-93.872 119.040-172.752 119.040-102.096 0-184.88-82.768-184.88-184.848 0-26.752 5.712-52.16 15.936-75.12v-677.968h820.624v818.896h-478.928zM860.32 753.856c0 1.728 1.744 3.456 3.472 3.456h31.088c1.712 0 3.472-1.728 3.472-3.456v-53.552c0-1.728-1.744-3.456-3.472-3.456h-31.088c-1.712 0-3.472 1.728-3.472 3.456v53.552zM757.536 753.856c0 1.728 1.744 3.456 3.44 3.456h31.088c1.744 0 3.472-1.728 3.472-3.456v-53.552c0-1.728-1.712-3.456-3.472-3.456h-31.088c-1.68 0-3.44 1.728-3.44 3.456v53.552zM654.72 753.856c0 1.728 1.744 3.456 3.472 3.456h31.088c1.744 0 3.472-1.728 3.472-3.456v-53.552c0-1.728-1.712-3.456-3.472-3.456h-31.088c-1.712 0-3.472 1.728-3.472 3.456v53.552zM551.936 753.856c0 1.728 1.712 3.456 3.44 3.456h31.12c1.712 0 3.44-1.728 3.44-3.456v-53.552c0-1.728-1.712-3.456-3.44-3.456h-31.12c-1.712 0-3.44 1.728-3.44 3.456v53.552zM461.568 758.192h23.008c1.712 0 3.472-1.728 3.472-3.456v-53.568c0-1.728-1.744-3.456-3.472-3.456h-24.368c2.096 11.152 3.248 22.656 3.248 34.4-0.016 8.864-0.672 17.552-1.888 26.080zM280.32 873.184c77.872 0 141.056-63.152 141.056-141.072s-63.184-141.072-141.056-141.072c-77.936 0-141.088 63.152-141.088 141.072-0.016 77.92 63.136 141.072 141.088 141.072zM179.664 23.072c0-1.728-1.744-3.456-3.504-3.456h-30.192c-1.744 0-3.472 1.728-3.472 3.456v53.568c0 1.728 1.712 3.456 3.472 3.456h31.056c1.744 0 3.472-1.712 3.472-3.456l-0.832-53.568zM282.432 23.072c0-1.728-1.712-3.456-3.472-3.456h-31.088c-1.712 0-3.472 1.728-3.472 3.456v53.568c0 1.728 1.744 3.456 3.472 3.456h31.088c1.744 0 3.472-1.712 3.472-3.456v-53.568zM385.216 23.072c0-1.728-1.712-3.456-3.44-3.456h-31.12c-1.712 0-3.44 1.728-3.44 3.456v53.568c0 1.728 1.712 3.456 3.44 3.456h31.12c1.712 0 3.44-1.712 3.44-3.456v-53.568zM488.032 23.072c0-1.728-1.744-3.456-3.472-3.456h-31.088c-1.744 0-3.472 1.728-3.472 3.456v53.568c0 1.728 1.712 3.456 3.472 3.456h31.088c1.712 0 3.472-1.712 3.472-3.456v-53.568zM589.936 23.072c0-1.728-1.712-3.456-3.44-3.456h-31.12c-1.712 0-3.44 1.728-3.44 3.456v53.568c0 1.728 1.712 3.456 3.44 3.456h31.12c1.712 0 3.44-1.712 3.44-3.456v-53.568zM692.752 23.072c0-1.728-1.712-3.456-3.472-3.456h-31.088c-1.712 0-3.472 1.728-3.472 3.456v53.568c0 1.728 1.744 3.456 3.472 3.456h31.088c1.744 0 3.472-1.712 3.472-3.456v-53.568zM795.536 23.072c0-1.728-1.712-3.456-3.472-3.456h-31.088c-1.68 0-3.44 1.728-3.44 3.456v53.568c0 1.728 1.744 3.456 3.44 3.456h31.088c1.744 0 3.472-1.712 3.472-3.456v-53.568zM898.336 23.072c0-1.728-1.744-3.456-3.472-3.456h-31.088c-1.712 0-3.472 1.728-3.472 3.456v53.568c0 1.728 1.744 3.456 3.472 3.456h31.088c1.712 0 3.472-1.712 3.472-3.456v-53.568zM900.032 112.912h-760.128v497.024c33.872-38.416 83.44-62.688 138.688-62.688 78.032 0 144.72 48.384 171.84 116.768h449.6v-551.104zM267.936 617.104h23.184v181.504l54.064-54.064v30.88l-65.648 65.664-65.664-65.664v-30.88l54.064 54.064z" />
<glyph unicode="&#xe908;" glyph-name="Icons_Icon_H264" d="M415.504 796.272v-138.048h488.336v-568.176h-783.68v482.304h-31.184v-620.352h846.064v844.272h-519.536zM479.040 696.512c0-1.776-1.776-3.584-3.584-3.584h-32.032c-1.792 0-3.584 1.792-3.584 3.584v55.216c0 1.776 1.776 3.568 3.584 3.568h32.032c1.792 0 3.584-1.776 3.584-3.568v-55.216zM584.144 695.648c0-1.792-1.776-3.584-3.584-3.584h-32.048c-1.776 0-3.552 1.776-3.552 3.584v55.2c0 1.76 1.76 3.552 3.552 3.552h32.048c1.792 0 3.584-1.776 3.584-3.552v-55.2zM690.112 695.648c0-1.792-1.76-3.584-3.552-3.584h-32.064c-1.776 0-3.584 1.776-3.584 3.584v55.2c0 1.76 1.792 3.552 3.584 3.552h32.064c1.776 0 3.552-1.776 3.552-3.552v-55.2zM796.096 695.648c0-1.792-1.792-3.584-3.552-3.584h-32.080c-1.76 0-3.568 1.776-3.568 3.584v55.2c0 1.76 1.792 3.552 3.568 3.552h32.080c1.744 0 3.552-1.776 3.552-3.552v-55.2zM902.080 695.648c0-1.792-1.792-3.584-3.584-3.584h-32.064c-1.76 0-3.552 1.776-3.552 3.584v55.2c0 1.76 1.776 3.552 3.552 3.552h32.064c1.776 0 3.584-1.776 3.584-3.552v-55.2zM161.104-2.592c0-1.776-1.76-3.552-3.552-3.552h-31.184c-1.776 0-3.568 1.76-3.568 3.552v55.216c0 1.792 1.776 3.584 3.568 3.584h32.080c1.76 0 3.568-1.776 3.568-3.584l-0.912-55.216zM267.088-2.592c0-1.776-1.776-3.552-3.568-3.552h-32.064c-1.76 0-3.568 1.76-3.568 3.552v55.216c0 1.792 1.792 3.584 3.568 3.584h32.064c1.776 0 3.568-1.776 3.568-3.584v-55.216zM373.072-2.592c0-1.776-1.792-3.552-3.568-3.552h-32.064c-1.76 0-3.552 1.76-3.552 3.552v55.216c0 1.792 1.776 3.584 3.552 3.584h32.080c1.76 0 3.568-1.776 3.568-3.584v-55.216zM479.040-2.592c0-1.776-1.776-3.552-3.584-3.552h-32.032c-1.792 0-3.584 1.76-3.584 3.552v55.216c0 1.792 1.776 3.584 3.584 3.584h32.032c1.792 0 3.584-1.776 3.584-3.584v-55.216zM584.144-2.592c0-1.776-1.776-3.552-3.584-3.552h-32.048c-1.776 0-3.552 1.76-3.552 3.552v55.216c0 1.792 1.76 3.584 3.552 3.584h32.048c1.792 0 3.584-1.776 3.584-3.584v-55.216zM690.112-2.592c0-1.776-1.76-3.552-3.552-3.552h-32.064c-1.776 0-3.584 1.76-3.584 3.552v55.216c0 1.792 1.792 3.584 3.584 3.584h32.064c1.776 0 3.552-1.776 3.552-3.584v-55.216zM796.096-2.592c0-1.776-1.792-3.552-3.552-3.552h-32.080c-1.76 0-3.568 1.76-3.568 3.552v55.216c0 1.792 1.792 3.584 3.568 3.584h32.080c1.744 0 3.552-1.776 3.552-3.584v-55.216zM902.080-2.592c0-1.776-1.792-3.552-3.584-3.552h-32.064c-1.76 0-3.552 1.76-3.552 3.552v55.216c0 1.792 1.776 3.584 3.552 3.584h32.064c1.776 0 3.584-1.776 3.584-3.584v-55.216zM133.056 832.32v-20.4h35.088v20.4c0 42.224 34.352 76.592 76.592 76.592 42.256 0 76.608-34.368 76.608-76.592v-20.4h35.088v20.4c0 61.584-50.096 111.68-111.68 111.68s-111.696-50.112-111.696-111.68zM400.336 756.336c0-10.992-8.912-19.888-19.888-19.888h-271.392c-10.992 0-19.888 8.928-19.888 19.888v23.408c0 10.976 8.912 19.888 19.888 19.888h271.376c10.992 0 19.888-8.928 19.888-19.888v-23.408zM400.336 679.136c0-10.992-8.912-19.888-19.888-19.888h-271.392c-10.992 0-19.888 8.912-19.888 19.888v23.376c0 11.008 8.912 19.888 19.888 19.888h271.376c10.992 0 19.888-8.912 19.888-19.888v-23.376zM400.336 601.936c0-10.992-8.912-19.888-19.888-19.888h-271.392c-10.992 0-19.888 8.912-19.888 19.888v23.376c0 10.992 8.912 19.904 19.888 19.904h271.376c10.992 0 19.888-8.928 19.888-19.904v-23.376z" />
<glyph unicode="&#xe909;" glyph-name="Icons_H264arrow" d="M369.056 272.48v185.808h-24.592v-76.304h-96.608v76.304h-24.56v-185.808h24.56v87.568h96.608v-87.568zM465.552 330.144c16.336 13.856 28.096 24.752 35.152 32.688 7.040 7.952 12.112 15.52 15.136 22.704s4.576 14.48 4.576 21.936c0 14.624-5.2 26.88-15.6 36.752-10.384 9.872-24.528 14.816-42.352 14.816-17.648 0-31.696-4.576-42.192-13.728-10.48-9.168-16.528-22.512-18.144-39.984l23.472-2.432c0.080 11.664 3.408 20.784 10.016 27.392 6.576 6.592 15.376 9.888 26.352 9.888 10.368 0 18.832-3.104 25.312-9.312 6.416-6.208 9.664-13.856 9.664-22.896 0-8.608-3.552-17.76-10.64-27.424-7.104-9.696-20.752-22.784-40.96-39.344-12.992-10.656-22.928-20.032-29.84-28.144-6.864-8.112-11.872-16.352-15.008-24.704-1.92-5.088-2.848-10.352-2.672-15.84h122.8v21.888h-91.072c2.512 4.128 5.728 8.256 9.632 12.336 3.856 4.112 12.624 11.904 26.368 23.408zM590.272 434.208c5.488 4.064 11.872 6.080 19.12 6.080 9.024 0 16.64-3.248 22.832-9.76 3.712-4.032 6.608-10.544 8.624-19.504l22.688 1.76c-1.856 14.448-7.472 25.76-16.784 33.984-9.36 8.192-21.312 12.272-35.952 12.272-19.616 0-35.168-7.088-46.768-21.28-13.264-16.32-19.92-42.416-19.92-78.336 0-32.112 6.016-55.168 18.016-69.136 11.984-14 27.488-20.992 46.512-20.992 11.168 0 21.104 2.656 29.904 7.984s15.696 13.008 20.736 23.008c5.024 10.016 7.52 20.864 7.52 32.528 0 17.728-5.312 32.208-16 43.424-10.72 11.184-23.68 16.768-38.864 16.768-8.704 0-17.024-2-24.976-6.064-7.968-4.048-14.688-10.288-20.128-18.64 0.144 18.592 2.256 32.912 6.432 42.976 4.16 10.048 9.792 17.68 17.008 22.928zM581.12 361.76c7.168 7.408 15.952 11.088 26.24 11.088 10.4 0 19.024-3.68 25.872-11.088 6.816-7.392 10.288-17.52 10.288-30.336 0-13.36-3.52-23.936-10.4-31.696-6.96-7.76-15.2-11.664-24.848-11.664-6.592 0-12.88 1.888-18.896 5.632-6.016 3.792-10.688 9.264-14 16.448-3.36 7.168-5.024 14.688-5.024 22.56-0.016 11.968 3.584 21.664 10.768 29.056zM766.816 458.288l-84.816-120.416v-20.912h80.624v-44.48h22.864v44.48h25.072v20.912h-25.072v120.416h-18.672zM762.624 337.872h-58.176l58.176 83.792v-83.792zM446.672 789.328c2.656-12.384 4.128-25.264 4.128-38.448 0-0.496-0.032-0.976-0.032-1.44h29.6c1.76 0 3.488-1.744 3.488-3.488v-53.808c0-1.728-1.712-3.456-3.488-3.456h-31.216c-1.744 0-3.488 1.712-3.488 3.456v15.936c-4.672-19.12-12.336-37.040-22.496-53.248h474.592v-553.648h-763.632v530.416c-12.496 14.24-22.816 30.384-30.384 48.048v-712.976h824.416v822.656h-481.488zM586.272 691.296c0-1.744-1.744-3.488-3.504-3.488h-31.264c-1.68 0-3.472 1.728-3.472 3.488v53.792c0 1.744 1.776 3.456 3.472 3.456h31.264c1.744 0 3.504-1.712 3.504-3.456v-53.792zM689.52 691.296c0-1.744-1.744-3.488-3.472-3.488h-31.248c-1.712 0-3.504 1.728-3.504 3.488v53.792c0 1.744 1.776 3.456 3.504 3.456h31.248c1.712 0 3.472-1.712 3.472-3.456v-53.792zM792.784 691.296c0-1.744-1.712-3.488-3.488-3.488h-31.216c-1.728 0-3.456 1.728-3.456 3.488v53.792c0 1.744 1.712 3.456 3.456 3.456h31.216c1.76 0 3.488-1.712 3.488-3.456v-53.792zM896.064 691.296c0-1.744-1.712-3.488-3.488-3.488h-31.232c-1.76 0-3.472 1.728-3.472 3.488v53.792c0 1.744 1.696 3.456 3.472 3.456h31.232c1.76 0 3.488-1.712 3.488-3.456v-53.792zM174.048 10.912c0-1.712-1.728-3.456-3.488-3.456h-30.352c-1.712 0-3.504 1.728-3.504 3.456v53.824c0 1.744 1.776 3.472 3.504 3.472h31.232c1.712 0 3.44-1.728 3.44-3.472l-0.832-53.824zM277.296 10.912c0-1.712-1.728-3.456-3.488-3.456h-31.216c-1.728 0-3.504 1.728-3.504 3.456v53.824c0 1.744 1.76 3.472 3.504 3.472h31.216c1.744 0 3.488-1.728 3.488-3.472v-53.824zM380.56 10.912c0-1.712-1.696-3.456-3.456-3.456h-31.248c-1.728 0-3.488 1.728-3.488 3.456v53.824c0 1.744 1.744 3.472 3.488 3.472h31.248c1.744 0 3.456-1.728 3.456-3.472v-53.824zM483.84 10.912c0-1.712-1.712-3.456-3.488-3.456h-31.216c-1.744 0-3.488 1.728-3.488 3.456v53.824c0 1.744 1.728 3.472 3.488 3.472h31.216c1.76 0 3.488-1.728 3.488-3.472v-53.824zM586.272 10.912c0-1.712-1.744-3.456-3.504-3.456h-31.264c-1.68 0-3.472 1.728-3.472 3.456v53.824c0 1.744 1.776 3.472 3.472 3.472h31.264c1.744 0 3.504-1.728 3.504-3.472v-53.824zM689.52 10.912c0-1.712-1.744-3.456-3.472-3.456h-31.248c-1.712 0-3.504 1.728-3.504 3.456v53.824c0 1.744 1.776 3.472 3.504 3.472h31.248c1.712 0 3.472-1.728 3.472-3.472v-53.824zM792.784 10.912c0-1.712-1.712-3.456-3.488-3.456h-31.216c-1.728 0-3.456 1.728-3.456 3.456v53.824c0 1.744 1.712 3.472 3.456 3.472h31.216c1.76 0 3.488-1.728 3.488-3.472v-53.824zM896.064 10.912c0-1.712-1.712-3.456-3.488-3.456h-31.232c-1.76 0-3.472 1.728-3.472 3.456v53.824c0 1.744 1.696 3.472 3.472 3.472h31.232c1.76 0 3.488-1.728 3.488-3.472v-53.824zM269.968 582.992c92.72 0 167.872 75.168 167.872 167.904 0 92.72-75.152 167.888-167.872 167.888s-167.872-75.168-167.872-167.904c0-92.736 75.152-167.888 167.872-167.888zM185.664 786.72l15.152 15.552c16.112 16.624 32.336 32.72 48.704 48.336l24.336 23.216 24.352-23.216c16.368-15.616 32.56-31.712 48.672-48.336l16.128-16.656c5.488-5.632 8.24-11.056 8.24-16.32v-1.872c0-3.968-0.48-7.232-1.504-9.712-0.992-2.512-2.496-5.008-4.496-7.504-2.112-2.64-4.496-4.992-7.12-7.12-2.512-2-4.976-3.488-7.472-4.512-2.48-0.992-5.616-1.488-9.392-1.488-3.744 0-6.832 0.48-9.36 1.488-2.608 1.152-5.36 2.88-8.24 5.264-2.992 2.352-6.416 5.616-10.304 9.728l-9.536 9.936v-99.648c0-6.112-0.992-10.928-3.008-14.416-2.16-3.52-4.16-6.24-6.032-8.24-1.968-1.872-4.704-3.872-8.24-6-3.52-2-7.712-2.992-12.72-2.992s-9.216 0.992-12.704 2.992c-3.536 2.128-6.256 4.128-8.256 6-1.872 2-3.888 4.736-5.984 8.256-2.048 3.488-3.024 8.32-3.024 14.416v98.144l-17.792-16.112c-6.48-5.856-12.656-8.8-18.512-8.8-5.744 0-10.848 1.488-15.376 4.496-4.368 3.104-8.128 6.88-11.216 11.232-3.008 4.496-4.496 9.664-4.496 15.536 0.032 5.888 3.088 11.984 9.2 18.352z" />
<glyph unicode="&#xe90a;" glyph-name="Icons-13" d="M519.168 782.256c-157.504 0-285.632-128.128-285.632-285.616s128.128-285.6 285.632-285.6 285.632 128.128 285.632 285.616-128.128 285.6-285.632 285.6zM783.696 542.896c1.776-12.592-7.008-24.256-19.6-26.032s-24.24 6.992-26.016 19.584c-1.76 12.592 7.008 24.256 19.6 26.016 12.608 1.792 24.24-6.992 26.016-19.568zM715.072 645.52c10.48 7.184 24.816 4.48 32-6s4.496-24.832-6-32.016c-10.48-7.168-24.816-4.48-32 6-7.184 10.496-4.496 24.848 6 32.016zM707.104 508.816c-12.592-1.76-24.256 7.008-26.016 19.584-1.776 12.608 6.992 24.272 19.6 26.032 12.592 1.776 24.24-6.992 26.016-19.568 1.76-12.608-7.008-24.256-19.6-26.048zM723.888 461.040c-2.096-12.544-13.968-21.008-26.496-18.928-12.544 2.096-21.008 13.968-18.944 26.496 2.096 12.56 13.968 21.008 26.512 18.944 12.56-2.096 21.024-13.968 18.928-26.512zM699.584 607.008c7.168-10.512 4.496-24.816-6-32.016-10.496-7.168-24.832-4.496-32.016 6-7.168 10.496-4.48 24.832 6 32 10.48 7.184 24.816 4.512 32.016-5.984zM332.64 495.664c12.656 1.44 24.064-7.664 25.472-20.288 1.44-12.64-7.664-24.048-20.288-25.488-12.656-1.424-24.064 7.664-25.472 20.32-1.424 12.64 7.664 24.048 20.288 25.456zM313.712 543.088c3.232 12.304 15.808 19.68 28.112 16.432 12.32-3.216 19.664-15.792 16.432-28.112-3.216-12.288-15.808-19.664-28.112-16.416-12.288 3.2-19.664 15.792-16.432 28.096zM344.256 434.192c11.632 5.168 25.232-0.080 30.384-11.696s-0.096-25.232-11.712-30.384c-11.616-5.152-25.216 0.080-30.368 11.696s0.080 25.248 11.696 30.384zM371.792 496.656c0 81.392 65.984 147.36 147.376 147.36s147.376-65.968 147.376-147.36c0-81.408-65.984-147.36-147.376-147.36s-147.376 65.952-147.376 147.36zM653.648 703.552c7.856 10 22.336 11.76 32.336 3.92 10-7.856 11.744-22.336 3.904-32.336s-22.336-11.744-32.336-3.904c-10 7.84-11.744 22.304-3.904 32.32zM650.448 662.176c10-7.84 11.744-22.336 3.904-32.336s-22.32-11.76-32.336-3.904c-10.016 7.84-11.76 22.336-3.904 32.336 7.856 9.984 22.336 11.744 32.336 3.904zM578.208 738.544c3.824 12.144 16.752 18.864 28.896 15.024 12.112-3.808 18.864-16.752 15.008-28.896-3.808-12.128-16.752-18.848-28.88-15.008-12.128 3.792-18.864 16.736-15.024 28.88zM560.896 683.616c3.808 12.144 16.752 18.88 28.88 15.056 12.144-3.84 18.88-16.768 15.040-28.912-3.824-12.112-16.768-18.88-28.896-15.024-12.128 3.84-18.848 16.768-15.024 28.88zM517.072 769.328c12.72 0 23.024-10.304 23.024-23.024 0-12.704-10.32-23.008-23.024-23.008s-23.024 10.32-23.024 23.008c0 12.72 10.32 23.024 23.024 23.024zM517.072 711.76c12.72 0 23.024-10.32 23.024-23.024s-10.32-23.008-23.024-23.008c-12.704 0-23.024 10.32-23.024 23.008 0 12.704 10.32 23.024 23.024 23.024zM472.832 687.536c4.256-11.984-2-25.152-13.968-29.424s-25.152 1.968-29.44 13.936c-4.272 11.984 1.984 25.152 13.968 29.424 11.968 4.304 25.152-1.952 29.44-13.936zM424.048 755.712c11.984 4.288 25.152-1.968 29.44-13.952 4.272-11.984-1.984-25.152-13.968-29.424-11.968-4.272-25.152 1.968-29.424 13.952-4.272 11.968 1.984 25.152 13.952 29.424zM412.448 660.912c7.68-10.144 5.68-24.592-4.448-32.256-10.144-7.68-24.576-5.68-32.272 4.448-7.664 10.144-5.664 24.592 4.464 32.256 10.144 7.696 24.608 5.696 32.256-4.448zM345.456 711.28c10.128 7.664 24.592 5.68 32.256-4.448 7.68-10.128 5.68-24.592-4.432-32.272-10.16-7.664-24.592-5.664-32.272 4.464-7.68 10.16-5.68 24.576 4.448 32.256zM334.112 610.096c6.784 10.768 20.992 14 31.744 7.232 10.768-6.8 14-20.992 7.232-31.76s-20.992-14.016-31.744-7.232-14.016 20.992-7.232 31.76zM285.376 640.736c6.768 10.768 20.992 14 31.76 7.232s14-20.992 7.216-31.744-20.976-14-31.744-7.232c-10.752 6.768-14 21.008-7.232 31.744zM258.016 557.68c3.232 12.304 15.808 19.664 28.128 16.432 12.304-3.2 19.664-15.808 16.432-28.112-3.216-12.32-15.792-19.664-28.112-16.448-12.288 3.232-19.664 15.824-16.448 28.128zM255.136 463.76c-1.44 12.64 7.664 24.032 20.32 25.472 12.624 1.44 24.032-7.664 25.472-20.304 1.408-12.656-7.68-24.048-20.32-25.472-12.624-1.44-24.032 7.68-25.472 20.304zM310.336 368.736c-11.632-5.168-25.248 0.080-30.4 11.696s0.096 25.248 11.712 30.384c11.632 5.168 25.216-0.064 30.368-11.68s-0.080-25.216-11.68-30.4zM367.696 304.352c-8.784-9.216-23.344-9.568-32.56-0.816-9.232 8.768-9.6 23.344-0.832 32.56s23.344 9.584 32.56 0.816c9.216-8.784 9.584-23.36 0.832-32.56zM374.8 345.264c-9.216 8.768-9.568 23.328-0.816 32.56 8.768 9.2 23.344 9.568 32.56 0.816 9.216-8.768 9.584-23.344 0.816-32.544-8.752-9.248-23.344-9.6-32.56-0.832zM442.544 268.432c-5.6-11.424-19.392-16.144-30.816-10.576-11.424 5.616-16.16 19.392-10.56 30.832 5.584 11.424 19.376 16.144 30.8 10.56 11.424-5.616 16.16-19.392 10.576-30.816zM467.824 320.128c-5.6-11.408-19.376-16.144-30.8-10.544-11.424 5.584-16.176 19.36-10.576 30.8s19.376 16.16 30.816 10.56c11.424-5.6 16.16-19.376 10.56-30.816zM503.936 232c-12.704 0.848-22.304 11.792-21.456 24.496 0.832 12.672 11.792 22.288 24.48 21.456 12.704-0.848 22.304-11.808 21.456-24.512-0.816-12.704-11.792-22.272-24.48-21.44zM507.728 289.424c-12.688 0.832-22.32 11.808-21.472 24.496 0.848 12.704 11.808 22.288 24.496 21.456 12.704-0.848 22.304-11.808 21.472-24.496s-11.808-22.304-24.496-21.456zM552.784 314.24c-3.888 12.112 2.784 25.072 14.912 28.976 12.096 3.872 25.072-2.784 28.96-14.912 3.872-12.112-2.784-25.088-14.88-28.976-12.128-3.872-25.104 2.8-28.992 14.912zM599.328 244.528c-12.112-3.872-25.056 2.8-28.976 14.912-3.872 12.112 2.784 25.056 14.912 28.96 12.096 3.872 25.072-2.784 28.96-14.896 3.888-12.128-2.784-25.104-14.896-28.976zM617.104 336.080c-9.056 8.928-9.152 23.52-0.224 32.576 8.928 9.040 23.504 9.152 32.56 0.24 9.056-8.96 9.152-23.552 0.224-32.576-8.928-9.072-23.488-9.152-32.56-0.24zM690.672 295.904c-8.944-9.056-23.536-9.168-32.56-0.24-9.056 8.944-9.168 23.52-0.24 32.576 8.928 9.040 23.52 9.152 32.56 0.208 9.056-8.928 9.168-23.504 0.24-32.544zM699.792 392.368c-5.808-11.296-19.68-15.792-31.008-10s-15.792 19.664-10 31.008c5.776 11.312 19.664 15.792 30.992 10.016 11.328-5.808 15.808-19.696 10.016-31.024zM751.040 366.16c-5.808-11.312-19.68-15.792-31.008-10.016-11.312 5.792-15.808 19.664-10 31.008 5.776 11.296 19.664 15.792 30.992 10 11.312-5.808 15.808-19.68 10.016-30.992zM780.672 451.552c-2.096-12.528-13.968-21.024-26.496-18.928-12.544 2.112-21.024 13.984-18.944 26.496 2.112 12.544 13.968 21.024 26.496 18.944 12.576-2.080 21.040-13.968 18.944-26.512zM631.984 496.656c0-62.307-50.509-112.816-112.816-112.816s-112.816 50.509-112.816 112.816c0 62.307 50.509 112.816 112.816 112.816s112.816-50.509 112.816-112.816zM880 961.712c-35.12 0-67.312-12.704-92.32-33.712h-673.808c-14.752 0-33.872-15.232-33.872-29.984v-794.592c0-14.752 19.12-23.424 33.872-23.424h334.128v-112h-203.392c-9.952 0-18.032-6.032-18.032-16 0-9.936 8.080-16 18.032-16h580.912c9.968 0 18.032 6.064 18.032 16 0 9.968-8.064 16-18.032 16h-233.52v112h316.464c14.752 0 19.536 8.672 19.536 23.424v579.28c55.68 19.808 95.712 72.896 95.712 135.296 0 79.248-64.464 143.712-143.712 143.712zM519.168 178.992c-175.152 0-317.664 142.496-317.664 317.664s142.512 317.664 317.664 317.664 317.664-142.512 317.664-317.664-142.496-317.664-317.664-317.664zM844.176 125.744c-14 0-25.344 11.344-25.344 25.344 0 13.984 11.344 25.328 25.344 25.328 13.968 0 25.312-11.344 25.312-25.328 0-14-11.344-25.344-25.312-25.344zM990.096 799.664c-0.704-4.24-1.616-8.384-2.768-12.448-0.16-0.512-0.256-1.040-0.4-1.552-1.408-4.64-3.136-9.12-5.104-13.488-0.336-0.736-0.704-1.44-1.040-2.16-1.92-4.016-4.048-7.92-6.416-11.664-0.208-0.32-0.368-0.64-0.576-0.944-5.552-8.56-12.24-16.288-19.856-23.008-0.032-0.032-0.080-0.080-0.128-0.128-19.68-17.36-45.472-27.984-73.776-27.984-61.68 0-111.712 50.016-111.712 111.712 0 55.28 40.16 101.024 92.864 110h37.152c13.568-2.256 26.336-6.816 37.776-13.472 0.32-0.192 0.624-0.384 0.96-0.576 8.976-5.344 17.104-11.888 24.24-19.44 0.448-0.48 0.88-0.96 1.312-1.44 3.376-3.712 6.56-7.584 9.408-11.712 0.048-0.048 0.096-0.112 0.128-0.176 2.832-4.112 5.312-8.448 7.584-12.944 0.448-0.88 0.88-1.776 1.296-2.672 2.048-4.352 3.904-8.832 5.392-13.472 0.064-0.176 0.144-0.336 0.208-0.528 1.488-4.72 2.56-9.616 3.408-14.592 0.208-1.2 0.384-2.384 0.544-3.584 0.704-5.040 1.184-10.16 1.184-15.392 0-4.976-0.432-9.84-1.056-14.64-0.24-1.248-0.416-2.464-0.624-3.696zM881.776 800l-33.872 80h-31.904v-128h32v89.648l-11.616 0.128 36.304-89.776h17.84l34.672 89.6-13.2-0.144v-89.456h32v128h-28.528z" />
<glyph unicode="&#xe90b;" glyph-name="Icons-18" d="M519.168 782.256c-157.504 0-285.632-128.128-285.632-285.616s128.128-285.6 285.632-285.6 285.632 128.128 285.632 285.616-128.128 285.6-285.632 285.6zM783.696 542.896c1.776-12.592-7.008-24.256-19.6-26.032s-24.24 6.992-26.016 19.584c-1.76 12.592 7.008 24.256 19.6 26.016 12.608 1.792 24.24-6.992 26.016-19.568zM715.072 645.52c10.48 7.184 24.816 4.48 32-6s4.496-24.832-6-32.016c-10.48-7.168-24.816-4.48-32 6-7.184 10.496-4.496 24.848 6 32.016zM707.104 508.816c-12.592-1.76-24.256 7.008-26.016 19.584-1.776 12.608 6.992 24.272 19.6 26.032 12.592 1.776 24.24-6.992 26.016-19.568 1.76-12.608-7.008-24.256-19.6-26.048zM723.888 461.040c-2.096-12.544-13.968-21.008-26.496-18.928-12.544 2.096-21.008 13.968-18.944 26.496 2.096 12.56 13.968 21.008 26.512 18.944 12.56-2.096 21.024-13.968 18.928-26.512zM699.584 607.008c7.168-10.512 4.496-24.816-6-32.016-10.496-7.168-24.832-4.496-32.016 6-7.168 10.496-4.48 24.832 6 32 10.48 7.184 24.816 4.512 32.016-5.984zM332.64 495.664c12.656 1.44 24.064-7.664 25.472-20.288 1.44-12.64-7.664-24.048-20.288-25.488-12.656-1.424-24.064 7.664-25.472 20.32-1.424 12.64 7.664 24.048 20.288 25.456zM313.712 543.088c3.232 12.304 15.808 19.68 28.112 16.432 12.32-3.216 19.664-15.792 16.432-28.112-3.216-12.288-15.808-19.664-28.112-16.416-12.288 3.2-19.664 15.792-16.432 28.096zM344.256 434.192c11.632 5.168 25.232-0.080 30.384-11.696s-0.096-25.232-11.712-30.384c-11.616-5.152-25.216 0.080-30.368 11.696s0.080 25.248 11.696 30.384zM371.792 496.656c0 81.392 65.984 147.36 147.376 147.36s147.376-65.968 147.376-147.36c0-81.408-65.984-147.36-147.376-147.36s-147.376 65.952-147.376 147.36zM653.648 703.552c7.856 10 22.336 11.76 32.336 3.92 10-7.856 11.744-22.336 3.904-32.336s-22.336-11.744-32.336-3.904c-10 7.84-11.744 22.304-3.904 32.32zM650.448 662.176c10-7.84 11.744-22.336 3.904-32.336s-22.32-11.76-32.336-3.904c-10.016 7.84-11.76 22.336-3.904 32.336 7.856 9.984 22.336 11.744 32.336 3.904zM578.208 738.544c3.824 12.144 16.752 18.864 28.896 15.024 12.112-3.808 18.864-16.752 15.008-28.896-3.808-12.128-16.752-18.848-28.88-15.008-12.128 3.792-18.864 16.736-15.024 28.88zM560.896 683.616c3.808 12.144 16.752 18.88 28.88 15.056 12.144-3.84 18.88-16.768 15.040-28.912-3.824-12.112-16.768-18.88-28.896-15.024-12.128 3.84-18.848 16.768-15.024 28.88zM517.072 769.328c12.72 0 23.024-10.304 23.024-23.024 0-12.704-10.32-23.008-23.024-23.008s-23.024 10.32-23.024 23.008c0 12.72 10.32 23.024 23.024 23.024zM517.072 711.76c12.72 0 23.024-10.32 23.024-23.024s-10.32-23.008-23.024-23.008c-12.704 0-23.024 10.32-23.024 23.008 0 12.704 10.32 23.024 23.024 23.024zM472.832 687.536c4.256-11.984-2-25.152-13.968-29.424s-25.152 1.968-29.44 13.936c-4.272 11.984 1.984 25.152 13.968 29.424 11.968 4.304 25.152-1.952 29.44-13.936zM424.048 755.712c11.984 4.288 25.152-1.968 29.44-13.952 4.272-11.984-1.984-25.152-13.968-29.424-11.968-4.272-25.152 1.968-29.424 13.952-4.272 11.968 1.984 25.152 13.952 29.424zM412.448 660.912c7.68-10.144 5.68-24.592-4.448-32.256-10.144-7.68-24.576-5.68-32.272 4.448-7.664 10.144-5.664 24.592 4.464 32.256 10.144 7.696 24.608 5.696 32.256-4.448zM345.456 711.28c10.128 7.664 24.592 5.68 32.256-4.448 7.68-10.128 5.68-24.592-4.432-32.272-10.16-7.664-24.592-5.664-32.272 4.464-7.68 10.16-5.68 24.576 4.448 32.256zM334.112 610.096c6.784 10.768 20.992 14 31.744 7.232 10.768-6.8 14-20.992 7.232-31.76s-20.992-14.016-31.744-7.232-14.016 20.992-7.232 31.76zM285.376 640.736c6.768 10.768 20.992 14 31.76 7.232s14-20.992 7.216-31.744-20.976-14-31.744-7.232c-10.752 6.768-14 21.008-7.232 31.744zM258.016 557.68c3.232 12.304 15.808 19.664 28.128 16.432 12.304-3.2 19.664-15.808 16.432-28.112-3.216-12.32-15.792-19.664-28.112-16.448-12.288 3.232-19.664 15.824-16.448 28.128zM255.136 463.76c-1.44 12.64 7.664 24.032 20.32 25.472 12.624 1.44 24.032-7.664 25.472-20.304 1.408-12.656-7.68-24.048-20.32-25.472-12.624-1.44-24.032 7.68-25.472 20.304zM310.336 368.736c-11.632-5.168-25.248 0.080-30.4 11.696s0.096 25.248 11.712 30.384c11.632 5.168 25.216-0.064 30.368-11.68s-0.080-25.216-11.68-30.4zM367.696 304.352c-8.784-9.216-23.344-9.568-32.56-0.816-9.232 8.768-9.6 23.344-0.832 32.56s23.344 9.584 32.56 0.816c9.216-8.784 9.584-23.36 0.832-32.56zM374.8 345.264c-9.216 8.768-9.568 23.328-0.816 32.56 8.768 9.2 23.344 9.568 32.56 0.816 9.216-8.768 9.584-23.344 0.816-32.544-8.752-9.248-23.344-9.6-32.56-0.832zM442.544 268.432c-5.6-11.424-19.392-16.144-30.816-10.576-11.424 5.616-16.16 19.392-10.56 30.832 5.584 11.424 19.376 16.144 30.8 10.56 11.424-5.616 16.16-19.392 10.576-30.816zM467.824 320.128c-5.6-11.408-19.376-16.144-30.8-10.544-11.424 5.584-16.176 19.36-10.576 30.8s19.376 16.16 30.816 10.56c11.424-5.6 16.16-19.376 10.56-30.816zM503.936 232c-12.704 0.848-22.304 11.792-21.456 24.496 0.832 12.672 11.792 22.288 24.48 21.456 12.704-0.848 22.304-11.808 21.456-24.512-0.816-12.704-11.792-22.272-24.48-21.44zM507.728 289.424c-12.688 0.832-22.32 11.808-21.472 24.496 0.848 12.704 11.808 22.288 24.496 21.456 12.704-0.848 22.304-11.808 21.472-24.496s-11.808-22.304-24.496-21.456zM552.784 314.24c-3.888 12.112 2.784 25.072 14.912 28.976 12.096 3.872 25.072-2.784 28.96-14.912 3.872-12.112-2.784-25.088-14.88-28.976-12.128-3.872-25.104 2.8-28.992 14.912zM599.328 244.528c-12.112-3.872-25.056 2.8-28.976 14.912-3.872 12.112 2.784 25.056 14.912 28.96 12.096 3.872 25.072-2.784 28.96-14.896 3.888-12.128-2.784-25.104-14.896-28.976zM617.104 336.080c-9.056 8.928-9.152 23.52-0.224 32.576 8.928 9.040 23.504 9.152 32.56 0.24 9.056-8.96 9.152-23.552 0.224-32.576-8.928-9.072-23.488-9.152-32.56-0.24zM690.672 295.904c-8.944-9.056-23.536-9.168-32.56-0.24-9.056 8.944-9.168 23.52-0.24 32.576 8.928 9.040 23.52 9.152 32.56 0.208 9.056-8.928 9.168-23.504 0.24-32.544zM699.792 392.368c-5.808-11.296-19.68-15.792-31.008-10s-15.792 19.664-10 31.008c5.776 11.312 19.664 15.792 30.992 10.016 11.328-5.808 15.808-19.696 10.016-31.024zM751.040 366.16c-5.808-11.312-19.68-15.792-31.008-10.016-11.312 5.792-15.808 19.664-10 31.008 5.776 11.296 19.664 15.792 30.992 10 11.312-5.808 15.808-19.68 10.016-30.992zM780.672 451.552c-2.096-12.528-13.968-21.024-26.496-18.928-12.544 2.112-21.024 13.984-18.944 26.496 2.112 12.544 13.968 21.024 26.496 18.944 12.576-2.080 21.040-13.968 18.944-26.512zM631.984 496.656c0-62.307-50.509-112.816-112.816-112.816s-112.816 50.509-112.816 112.816c0 62.307 50.509 112.816 112.816 112.816s112.816-50.509 112.816-112.816zM880 961.712c-35.12 0-67.312-12.704-92.32-33.712h-673.808c-14.752 0-33.872-15.232-33.872-29.984v-794.592c0-14.752 19.12-23.424 33.872-23.424h334.128v-112h-203.392c-9.952 0-18.032-6.032-18.032-16 0-9.936 8.080-16 18.032-16h580.912c9.968 0 18.032 6.064 18.032 16 0 9.968-8.064 16-18.032 16h-233.52v112h316.464c14.752 0 19.536 8.672 19.536 23.424v579.28c55.68 19.808 95.712 72.896 95.712 135.296 0 79.248-64.464 143.712-143.712 143.712zM519.168 178.992c-175.152 0-317.664 142.496-317.664 317.664s142.512 317.664 317.664 317.664 317.664-142.512 317.664-317.664-142.496-317.664-317.664-317.664zM844.176 125.744c-14 0-25.344 11.344-25.344 25.344 0 13.984 11.344 25.328 25.344 25.328 13.968 0 25.312-11.344 25.312-25.328 0-14-11.344-25.344-25.312-25.344zM990.096 799.664c-0.704-4.24-1.616-8.384-2.768-12.448-0.16-0.512-0.256-1.040-0.4-1.552-1.408-4.64-3.136-9.12-5.104-13.488-0.336-0.736-0.704-1.44-1.040-2.16-1.92-4.016-4.048-7.92-6.416-11.664-0.208-0.32-0.368-0.64-0.576-0.944-5.552-8.56-12.24-16.288-19.856-23.008-0.032-0.032-0.080-0.080-0.128-0.128-19.68-17.36-45.472-27.984-73.776-27.984-61.68 0-111.712 50.016-111.712 111.712 0 55.28 40.16 101.024 92.864 110h37.152c13.568-2.256 26.336-6.816 37.776-13.472 0.32-0.192 0.624-0.384 0.96-0.576 8.976-5.344 17.104-11.888 24.24-19.44 0.448-0.48 0.88-0.96 1.312-1.44 3.376-3.712 6.56-7.584 9.408-11.712 0.048-0.048 0.096-0.112 0.128-0.176 2.832-4.112 5.312-8.448 7.584-12.944 0.448-0.88 0.88-1.776 1.296-2.672 2.048-4.352 3.904-8.832 5.392-13.472 0.064-0.176 0.144-0.336 0.208-0.528 1.488-4.72 2.56-9.616 3.408-14.592 0.208-1.2 0.384-2.384 0.544-3.584 0.704-5.040 1.184-10.16 1.184-15.392 0-4.976-0.432-9.84-1.056-14.64-0.24-1.248-0.416-2.464-0.624-3.696zM912 832h-64v48h-32v-128h32v48h64v-48h32v128h-32z" />
<glyph unicode="&#xe90c;" glyph-name="Icons_Icon_3G" d="M512 933.728c-268.784 0-487.472-217.904-487.472-485.744 0-267.824 218.688-485.712 487.472-485.712s487.472 217.888 487.472 485.712c0 267.84-218.688 485.744-487.472 485.744zM512 32.704c-229.952 0-417.024 186.288-417.024 415.28 0 229.008 187.072 415.312 417.024 415.312s417.024-186.304 417.024-415.312c0-228.976-187.072-415.28-417.024-415.28zM256 336h96v-128h-96v128zM640 208h96v496h-96v-496zM672 672h32v-432h-32v432zM512 208h96v368h-96v-368zM544 544h32v-304h-32v304zM384 448h96v-240h-96v240z" />
<glyph unicode="&#xe90d;" glyph-name="Icons_Icon_Analogue" d="M511.984-45.456c-272.768 0-494.688 221.376-494.688 493.456s221.92 493.44 494.688 493.44c272.784 0 494.72-221.36 494.72-493.44s-221.936-493.456-494.72-493.456zM511.984 869.936c-233.344 0-423.184-189.264-423.184-421.936s189.84-421.952 423.184-421.952c233.36 0 423.216 189.28 423.216 421.952s-189.856 421.936-423.216 421.936zM250.496 492.864h522.992v-50.128h-522.992v50.128zM250.496 593.44h522.992v-79.488h-522.992v79.488zM288.672 421.616c10.8-113.392 106.272-202.384 223.312-202.384 117.072 0 212.544 88.992 223.344 202.384h-446.656zM511.984 251.488c-42.336 0-76.816 34.384-76.816 76.592 0 42.256 34.48 76.608 76.816 76.608 42.352 0 76.816-34.352 76.816-76.608 0-42.208-34.464-76.592-76.816-76.592z" />
<glyph unicode="&#xe90e;" glyph-name="Icons_icon-Archive" d="M906 955.776h-788c-32.032 0-58.24-26.16-58.24-58.128v-899.344c0-31.936 26.208-58.096 58.24-58.096h788c32.064 0 58.24 26.16 58.24 58.096v899.36c0 31.968-26.176 58.112-58.24 58.112zM237.824 82.624c0-19.376-15.888-35.216-35.28-35.216h-73.568c-19.408 0-35.28 15.84-35.28 35.216v73.408c0 19.376 15.872 35.216 35.28 35.216h73.584c19.392 0 35.28-15.84 35.28-35.216v-73.408zM237.824 308.32c0-19.376-15.888-35.216-35.28-35.216h-73.568c-19.408 0-35.28 15.84-35.28 35.216v73.408c0 19.376 15.872 35.216 35.28 35.216h73.584c19.392 0 35.28-15.84 35.28-35.216v-73.408zM237.824 533.968c0-19.344-15.888-35.184-35.28-35.184h-73.568c-19.408 0-35.28 15.84-35.28 35.184v73.44c0 19.376 15.872 35.216 35.28 35.216h73.584c19.392 0 35.28-15.84 35.28-35.216v-73.44zM237.824 759.664c0-19.344-15.888-35.184-35.28-35.184h-73.568c-19.408 0-35.28 15.84-35.28 35.184v73.44c0 19.376 15.872 35.184 35.28 35.184h73.584c19.392 0 35.28-15.808 35.28-35.184v-73.44zM283.056 432.496h460.72v-447.152h-460.72v447.152zM283.056 910.656h460.72v-433.024h-460.72v433.024zM927.472 82.624c0-19.376-15.872-35.216-35.28-35.216h-73.584c-19.408 0-35.264 15.84-35.264 35.216v73.408c0 19.376 15.856 35.216 35.264 35.216h73.584c19.408 0 35.28-15.84 35.28-35.216v-73.408zM927.472 308.32c0-19.376-15.872-35.216-35.28-35.216h-73.584c-19.408 0-35.264 15.84-35.264 35.216v73.408c0 19.376 15.856 35.216 35.264 35.216h73.584c19.408 0 35.28-15.84 35.28-35.216v-73.408zM927.472 533.968c0-19.344-15.872-35.184-35.28-35.184h-73.584c-19.408 0-35.264 15.84-35.264 35.184v73.44c0 19.376 15.856 35.216 35.264 35.216h73.584c19.408 0 35.28-15.84 35.28-35.216v-73.44zM927.472 759.664c0-19.344-15.872-35.184-35.28-35.184h-73.584c-19.408 0-35.264 15.84-35.264 35.184v73.44c0 19.376 15.856 35.184 35.264 35.184h73.584c19.408 0 35.28-15.808 35.28-35.184v-73.44z" />
<glyph unicode="&#xe90f;" glyph-name="Icons_icon-archivecv" d="M768.016 886.736h-512.016l-256-501.408v-376.064h1024v376.064l-255.984 501.408zM768.016 385.328l-128.032-188.032h-255.984l-128 188.032h-184.432l224.016 438.752h432.864l224.032-438.736h-184.464zM704 698.72h-383.984v62.672h383.984v-62.672zM256 636.032h512.016v-62.672h-512.016v62.672zM192 510.688h639.984v-62.688h-639.984v62.688z" />
<glyph unicode="&#xe910;" glyph-name="Icons_icon-calenderscv" d="M0 960v-1024h1024v1024h-1024zM960 0h-896v704h896v-704zM320 128h80v464h-70.944c-9.936-32-24.56-54-50.976-74.528-26.448-20.656-54.080-36.944-70.080-44.416v-78.384c32 14.128 80 35.856 112 65.456v-332.128zM652.144 286.672c32.592 0 59.872 12.528 81.664 37.856-3.472-51.856-11.472-85.872-24.016-102.256-12.528-16.4-27.792-24.688-45.6-24.688-14.208 0-25.616 4.128-34.208 12.4-8.512 8.128-13.92 20.8-15.984 37.744l-83.664-9.056c6.144-37.488 20.064-65.488 41.792-84.288 21.792-18.8 50.336-28.128 85.536-28.128 49.056 0 88.96 18.256 119.552 54.8 30.512 36.416 45.792 96 45.792 178.544-0.016 80.912-14.688 139.168-44.096 174.512-29.248 35.488-66.784 53.088-112.64 53.088-42.064 0-76.544-14-103.744-42-27.248-28-40.784-64.8-40.784-110.528 0-43.984 12.8-79.616 38.608-106.96 25.728-27.424 56.32-41.040 91.792-41.040zM622.464 496.672c10.592 12.528 23.856 18.928 39.872 18.928 16.864 0 31.6-7.712 44.528-23.184 12.8-15.344 19.2-36.944 19.2-64.944-0.016-25.472-5.68-44.672-17.152-57.872-11.392-13.056-25.328-19.6-41.92-19.6-17.344 0-31.616 6.8-43.072 20.4-11.536 13.728-17.328 35.056-17.328 64.272 0 28.672 5.408 49.328 15.872 62z" />
<glyph unicode="&#xe911;" glyph-name="Icons_Icon_Camera" d="M511.904 941.44c-272.768 0-494.672-221.344-494.672-493.424 0-272.096 221.92-493.456 494.672-493.456 272.784 0 494.704 221.36 494.704 493.456 0.016 272.064-221.92 493.424-494.704 493.424zM511.904 26.080c-233.328 0-423.168 189.28-423.168 421.936 0 232.64 189.824 421.904 423.168 421.904s423.2-189.264 423.2-421.904c0-232.656-189.84-421.936-423.2-421.936zM749.456 624h-99.040l-42.048 70.608c-9.872 17.040-28.56 25.392-48.928 25.392h-94.944c-20.32 0-39.024-8.352-48.912-25.392l-42.080-70.608h-99.136c-30.864 0-50.368-24.912-50.368-54.512v-267.856c0-29.616 19.504-45.632 50.352-45.632h475.088c30.896 0 50.56 16.016 50.56 45.648v267.84c0 29.6-19.664 54.512-50.544 54.512zM511.904 291.744c-84.864 0-153.68 66-153.68 147.328 0 81.36 68.832 147.328 153.68 147.328 84.88 0 153.712-65.968 153.712-147.328 0.016-81.328-68.8-147.328-153.712-147.328zM607.136 435.040c0-52.171-42.408-94.464-94.72-94.464s-94.72 42.293-94.72 94.464c0 52.171 42.408 94.464 94.72 94.464s94.72-42.293 94.72-94.464z" />
<glyph unicode="&#xe912;" glyph-name="Icons_icon-cameracv" d="M512 936c-269.504 0-488-218.48-488-488 0-269.504 218.496-488 488-488s488 218.496 488 488c0 269.52-218.496 488-488 488zM512 81.552c-202.384 0-366.448 164.064-366.448 366.448s164.064 366.448 366.448 366.448 366.464-164.064 366.464-366.448c0-202.384-164.080-366.448-366.464-366.448zM512 728.656c-154.992 0-280.64-125.664-280.64-280.656s125.648-280.64 280.64-280.64c155.008 0 280.64 125.648 280.64 280.64 0 155.008-125.632 280.656-280.64 280.656zM427.84 530.048c-40.496-40.992-69.776-86.896-86.32-131.12-15.344 19.856-25.744 43.664-29.232 70.016-10.96 82.672 50.176 158.944 136.544 170.384 38.784 5.136 76.048-3.68 106.352-22.448-43.152-17.216-87.648-46.656-127.344-86.832zM621.568 292.56c-29.36-3.888-56.32 16.752-60.208 46.096-3.888 29.36 16.768 56.32 46.128 60.208 29.344 3.888 56.304-16.752 60.192-46.112s-16.768-56.304-46.112-60.192z" />
<glyph unicode="&#xe913;" glyph-name="Icons_Icon_CameraTypeUnknown" d="M512 940.56c-272.352 0-493.952-220.96-493.952-492.56s221.6-492.56 493.952-492.56 493.952 220.96 493.952 492.56-221.6 492.56-493.952 492.56zM512 26.832c-232.992 0-422.544 188.928-422.544 421.168s189.552 421.168 422.544 421.168 422.544-188.928 422.544-421.168-189.552-421.168-422.544-421.168zM488.448 296.176c-45.424 0-77.696-33.76-77.696-82.992 0-47.424 31.392-82.976 77.696-82.976 48.016 0 78.544 35.552 78.544 82.976-0.832 49.232-31.392 82.992-78.544 82.992zM500.624 765.792c-61.968 0-113.472-18.256-145.776-37.376l29.68-99.392c22.704 16.4 57.616 27.36 86.432 27.36 43.664-0.96 63.744-22.832 63.744-54.752 0-30.048-22.736-60.192-50.656-95.712-39.28-48.336-54.128-97.712-51.504-144.224l0.864-25.696h110.592v20.32c0 41.056 15.888 76.624 47.312 114 33.168 38.304 76.464 83.92 76.464 153.232 0 75.68-51.904 142.24-167.152 142.24z" />
<glyph unicode="&#xe914;" glyph-name="Icons_icon-chartcv" d="M128.016 64.016v895.984h-128.016v-1024h1024l-0.016 128.016zM640 448l-128 128-255.984-256v-128l255.984 256 128-128 384 384v128z" />
<glyph unicode="&#xe915;" glyph-name="Icons_icon-circl-eqz" d="M512-47.984h3.296c132.272 1.088 256.8 52.896 349.424 147.68 92.56 94.784 144.352 219.328 143.264 351.6-2.208 271.136-223.728 492.688-495.984 492.688-276.656-2.208-498.176-225.952-495.984-499.28 2.208-271.136 223.728-492.688 495.984-492.688zM838.256 497.584c0 16.544 13.216 29.76 29.744 29.76 16.544 0 29.776-13.216 29.776-29.76v-98.080c0-16.528-13.232-29.744-29.776-29.744-16.528 0-29.744 13.232-29.744 29.744v98.080zM748.976 608.928c0 16.528 13.2 29.76 29.776 29.76 16.528 0 29.728-13.232 29.728-29.76v-320.736c0-16.56-13.2-29.76-29.728-29.76-16.576 0-29.776 13.2-29.776 29.76v320.736zM659.696 535.072c0 16.512 13.2 29.744 29.744 29.744 16.512 0 29.76-13.232 29.76-29.744v-174.16c0-16.512-13.248-29.744-29.76-29.744-16.544 0-29.744 13.232-29.744 29.744v174.16zM571.52 591.296c0 16.512 13.232 29.744 29.744 29.744 16.544 0 29.76-13.232 29.76-29.744v-286.592c0-16.512-13.216-29.744-29.76-29.744-16.512 0-29.744 13.232-29.744 29.744v286.592zM482.24 684.976c0 16.544 13.232 29.76 29.76 29.76s29.76-13.216 29.76-29.76v-472.816c0-16.56-13.232-29.776-29.76-29.776s-29.76 13.216-29.76 29.776v472.816zM392.976 725.744c0 16.528 13.216 29.76 29.744 29.76 16.512 0 29.76-13.232 29.76-29.76v-555.504c0-16.528-13.248-29.76-29.76-29.76-16.528 0-29.744 13.232-29.744 29.76v555.504zM304.784 623.248c0 16.528 13.248 29.76 29.76 29.76 16.544 0 29.744-13.232 29.744-29.76v-349.376c0-16.56-13.2-29.776-29.744-29.776-16.512 0-29.76 13.216-29.76 29.776v349.376zM215.52 497.584c0 16.544 13.2 29.76 29.728 29.76 16.576 0 29.776-13.216 29.776-29.76v-98.080c0-16.528-13.2-29.744-29.776-29.744-16.528 0-29.728 13.232-29.728 29.744v98.080zM126.224 382.976v130.048c0 16.528 13.232 29.76 29.776 29.76 16.528 0 29.744-13.232 29.744-29.76v-128.944c0-16.544-13.216-29.744-29.744-29.744-16.544 0-29.776 12.112-29.776 28.64z" />
<glyph unicode="&#xe916;" glyph-name="Icons_Icon_CloudUpload" d="M518.336 522.384c-100.16 0-181.184-80.784-181.184-180.704s81.024-180.704 181.184-180.704 181.184 80.784 181.184 180.704-81.024 180.704-181.184 180.704zM544 336v-96h-64v96h-57.584l95.92 127.584 95.936-127.584h-70.272zM736 524.528c0 4.256 0 10.624 0 14.88 0 95.664-77.92 172.192-175.968 172.192-68.224 0-127.408-38.256-157.28-93.536-12.784 8.48-29.616 14.896-46.64 14.896-44.784 0-80.928-33.36-80.928-77.984 0-10.656 2.256-26.976 6.56-26.976-2.144 0-4.32 0-4.32 0-61.776 0-110.832-54.592-110.832-111.984 0-59.52 49.040-112.016 110.832-112.016h21.328c-4.272 16-4.272 24.16-4.272 34.784 0 123.344 100.192 224.704 223.84 224.704s223.824-99.184 223.824-222.512c0-10.64 0-20.896-2.112-31.536 59.664 0 107.76 49.040 107.76 106.48 0.032 59.504-47.792 108.608-111.792 108.608zM512 941.44c-272.784 0-494.688-221.344-494.688-493.44s221.904-493.44 494.688-493.44 494.688 221.344 494.688 493.44-221.904 493.44-494.688 493.44zM512 26.064c-233.344 0-423.184 189.28-423.184 421.936s189.84 421.936 423.184 421.936 423.184-189.28 423.184-421.936-189.84-421.936-423.184-421.936z" />
<glyph unicode="&#xe917;" glyph-name="Icons_icon-dashboardcv" d="M512 936c-269.072 0-488-218.928-488-488s218.928-488 488-488 488 218.928 488 488-218.928 488-488 488zM512 57.344c-215.44 0-390.672 175.216-390.672 390.656 0 215.424 175.232 390.656 390.672 390.656s390.672-175.232 390.672-390.656c0-215.44-175.232-390.656-390.672-390.656zM524.16 718.368h-24.32v-70.336h24.32v70.336zM460.752 645.28l-9.904 69.632-24.080-3.392 9.856-69.648 24.128 3.408zM355.36 694.48l19.6-67.584 23.376 6.752-19.584 67.568-23.392-6.736zM287.056 667.568l28.864-64.16 22.208 10-28.864 64.144-22.208-9.984zM223.248 631.328l37.552-59.472 20.56 12.976-37.584 59.504-20.528-13.008zM165.072 586.528l45.552-53.584 18.544 15.728-45.52 53.6-18.576-15.744zM563.248 645.28l24.096-3.408 9.856 69.648-24.112 3.392-9.84-69.632zM625.664 633.68l23.344-6.752 19.552 67.584-23.424 6.736-19.472-67.568zM685.744 613.424l22.24-10 28.768 64.192-22.224 9.968-28.784-64.16zM779.968 644.448l-37.456-59.504 20.608-12.992 37.424 59.504-20.576 12.992zM840.112 602.416l-45.488-53.616 18.608-15.728 45.44 53.648-18.56 15.696zM555.312 265.168c-12.512 7.872-27.376 350.432-43.312 350.432-16.8 0-32.368-343.040-45.296-351.76-21.632-14.576-35.808-39.248-35.808-67.264 0-44.8 36.32-81.104 81.104-81.104s81.104 36.304 81.104 81.104c0 28.896-15.072 54.24-37.792 68.592zM512 143.84c-29.072 0-52.72 23.648-52.72 52.72s23.648 52.72 52.72 52.72 52.72-23.632 52.72-52.72-23.648-52.72-52.72-52.72z" />
<glyph unicode="&#xe918;" glyph-name="Icons_Icon_Ethernet" d="M683.136 300.912l147.488 147.088-147.488 147.088v-66.56l80.736-80.528-80.736-80.528zM511.984-45.456c-272.784 0-494.688 221.36-494.688 493.456s221.904 493.456 494.688 493.456c272.8 0 494.72-221.36 494.72-493.456s-221.92-493.456-494.72-493.456zM511.984 869.936c-233.344 0-423.184-189.28-423.184-421.936s189.84-421.936 423.184-421.936c233.36 0 423.216 189.28 423.216 421.936s-189.856 421.936-423.216 421.936zM388.192 595.088l-147.488-147.088 147.488-147.088v66.56l-80.752 80.528 80.752 80.528zM464.88 448c0-19.493-15.853-35.296-35.408-35.296s-35.408 15.803-35.408 35.296c0 19.493 15.853 35.296 35.408 35.296s35.408-15.803 35.408-35.296zM641.84 483.296c19.552 0 35.424-15.808 35.424-35.296 0-19.504-15.872-35.296-35.424-35.296-19.52 0-35.408 15.792-35.408 35.296 0 19.488 15.904 35.296 35.408 35.296z" />
<glyph unicode="&#xe91a;" glyph-name="Icons_icon-flag" d="M512 785.536c-157.488 0-285.616-128.128-285.616-285.616s128.128-285.584 285.616-285.584 285.616 128.112 285.616 285.6-128.128 285.6-285.616 285.6zM776.528 546.176c1.776-12.592-7.008-24.256-19.6-26.032s-24.24 6.992-26.016 19.584c-1.76 12.592 7.008 24.256 19.6 26.016 12.592 1.792 24.24-6.992 26.016-19.568zM707.904 648.8c10.48 7.184 24.816 4.48 32-6s4.496-24.832-6-32.016c-10.48-7.168-24.816-4.48-32 6-7.184 10.496-4.496 24.848 6 32.016zM699.936 512.096c-12.592-1.76-24.256 7.008-26.016 19.584-1.776 12.608 6.992 24.272 19.6 26.032 12.592 1.776 24.24-6.992 26.016-19.568 1.76-12.608-7.008-24.272-19.6-26.048zM716.72 464.32c-2.096-12.544-13.968-21.008-26.496-18.928-12.544 2.096-21.008 13.968-18.944 26.496 2.096 12.56 13.968 21.008 26.512 18.944 12.544-2.096 21.024-13.968 18.928-26.512zM692.4 610.288c7.168-10.512 4.496-24.816-6-32.016-10.496-7.168-24.832-4.496-32.016 6-7.168 10.496-4.48 24.832 6 32 10.496 7.184 24.832 4.512 32.016-5.984zM325.472 498.944c12.656 1.44 24.064-7.664 25.472-20.288 1.44-12.64-7.664-24.048-20.288-25.488-12.656-1.424-24.064 7.664-25.472 20.32-1.44 12.64 7.664 24.048 20.288 25.456zM306.544 546.352c3.232 12.304 15.808 19.68 28.112 16.432 12.32-3.216 19.664-15.792 16.432-28.112-3.216-12.288-15.808-19.664-28.112-16.416-12.288 3.216-19.664 15.808-16.432 28.096zM337.072 437.472c11.632 5.168 25.232-0.080 30.384-11.696s-0.096-25.232-11.712-30.384c-11.616-5.152-25.216 0.080-30.368 11.696s0.096 25.248 11.696 30.384zM364.624 499.92c0 81.392 65.984 147.36 147.376 147.36s147.376-65.968 147.376-147.36c0-81.408-65.984-147.36-147.376-147.36s-147.376 65.952-147.376 147.36zM646.464 706.832c7.856 10 22.336 11.76 32.336 3.92 10-7.856 11.744-22.336 3.904-32.336s-22.336-11.744-32.336-3.904c-10 7.824-11.728 22.304-3.904 32.32zM643.28 665.456c10-7.84 11.744-22.336 3.904-32.336s-22.32-11.76-32.336-3.904c-10.016 7.84-11.76 22.336-3.904 32.336 7.856 9.984 22.336 11.744 32.336 3.904zM571.024 741.808c3.824 12.144 16.752 18.864 28.896 15.024 12.112-3.808 18.864-16.752 15.008-28.896-3.808-12.128-16.752-18.848-28.88-15.008-12.112 3.808-18.848 16.736-15.024 28.88zM553.712 686.896c3.808 12.144 16.752 18.88 28.88 15.056 12.144-3.84 18.88-16.768 15.040-28.912-3.824-12.112-16.768-18.88-28.896-15.024-12.112 3.824-18.832 16.768-15.024 28.88zM509.904 772.592c12.72 0 23.024-10.304 23.024-23.024 0-12.704-10.32-23.008-23.024-23.008s-23.024 10.32-23.024 23.008c0 12.736 10.32 23.024 23.024 23.024zM509.904 715.024c12.72 0 23.024-10.32 23.024-23.024s-10.32-23.008-23.024-23.008c-12.704 0-23.024 10.32-23.024 23.008 0 12.72 10.32 23.024 23.024 23.024zM465.664 690.816c4.256-11.984-2-25.152-13.968-29.424s-25.152 1.968-29.44 13.936c-4.272 11.984 1.984 25.152 13.968 29.424 11.968 4.288 25.152-1.952 29.44-13.936zM416.88 758.992c11.984 4.288 25.152-1.968 29.44-13.952 4.272-11.984-1.984-25.152-13.968-29.424-11.968-4.272-25.152 1.968-29.424 13.952-4.272 11.968 1.984 25.152 13.952 29.424zM405.28 664.192c7.68-10.144 5.68-24.592-4.448-32.256-10.144-7.68-24.576-5.68-32.272 4.448-7.664 10.144-5.664 24.592 4.464 32.256 10.144 7.696 24.608 5.696 32.256-4.448zM338.288 714.544c10.128 7.664 24.592 5.68 32.256-4.448 7.68-10.128 5.68-24.592-4.432-32.272-10.16-7.664-24.592-5.664-32.272 4.464-7.68 10.16-5.68 24.592 4.448 32.256zM326.944 613.376c6.784 10.768 20.992 14 31.744 7.232 10.768-6.8 14-20.992 7.232-31.76s-20.992-14.016-31.744-7.232-14.016 20.992-7.232 31.76zM278.208 644.016c6.768 10.768 20.992 14 31.76 7.232s14-20.992 7.216-31.744-20.976-14-31.744-7.232c-10.752 6.752-14 20.992-7.232 31.744zM250.848 560.96c3.232 12.304 15.808 19.664 28.128 16.432 12.304-3.2 19.664-15.808 16.432-28.112-3.216-12.32-15.792-19.664-28.112-16.448-12.288 3.232-19.664 15.824-16.448 28.128zM247.968 467.024c-1.44 12.64 7.664 24.032 20.32 25.472 12.624 1.44 24.032-7.664 25.472-20.304 1.408-12.656-7.68-24.048-20.32-25.472-12.624-1.424-24.032 7.68-25.472 20.304zM303.152 372.016c-11.632-5.168-25.248 0.080-30.4 11.696s0.096 25.248 11.712 30.384c11.632 5.168 25.216-0.064 30.368-11.68s-0.064-25.232-11.68-30.4zM360.528 307.632c-8.784-9.216-23.344-9.568-32.56-0.816-9.232 8.768-9.6 23.344-0.832 32.56s23.344 9.584 32.56 0.816c9.216-8.784 9.584-23.36 0.832-32.56zM367.632 348.528c-9.216 8.768-9.568 23.328-0.816 32.56 8.768 9.2 23.344 9.568 32.56 0.816 9.216-8.768 9.584-23.344 0.816-32.544-8.752-9.232-23.344-9.6-32.56-0.832zM435.376 271.696c-5.6-11.424-19.392-16.144-30.816-10.576-11.424 5.616-16.16 19.392-10.56 30.832 5.584 11.424 19.376 16.144 30.8 10.56 11.424-5.6 16.16-19.392 10.576-30.816zM460.656 323.408c-5.6-11.408-19.376-16.144-30.8-10.544-11.424 5.584-16.176 19.36-10.576 30.8s19.376 16.16 30.816 10.56c11.424-5.6 16.16-19.376 10.56-30.816zM496.768 235.264c-12.704 0.848-22.304 11.792-21.456 24.496 0.832 12.672 11.792 22.288 24.48 21.456 12.704-0.848 22.304-11.808 21.456-24.512-0.832-12.688-11.792-22.272-24.48-21.44zM500.56 292.704c-12.688 0.832-22.32 11.808-21.472 24.496 0.848 12.704 11.808 22.288 24.496 21.456 12.704-0.848 22.304-11.808 21.472-24.496s-11.808-22.32-24.496-21.456zM545.616 317.52c-3.888 12.112 2.784 25.072 14.912 28.976 12.096 3.872 25.072-2.784 28.96-14.912 3.872-12.112-2.784-25.088-14.88-28.976-12.144-3.872-25.104 2.8-28.992 14.912zM592.16 247.792c-12.112-3.872-25.056 2.8-28.976 14.912-3.872 12.112 2.784 25.056 14.912 28.96 12.096 3.872 25.072-2.784 28.96-14.896s-2.784-25.104-14.896-28.976zM609.936 339.36c-9.056 8.928-9.152 23.52-0.224 32.576 8.928 9.040 23.504 9.152 32.56 0.24 9.056-8.96 9.152-23.552 0.224-32.576-8.928-9.088-23.488-9.168-32.56-0.24zM683.504 299.168c-8.944-9.056-23.536-9.168-32.56-0.24-9.056 8.944-9.168 23.52-0.24 32.576 8.928 9.040 23.52 9.152 32.56 0.208 9.056-8.912 9.152-23.488 0.24-32.544zM692.624 395.648c-5.808-11.296-19.68-15.792-31.008-10s-15.792 19.664-10 31.008c5.776 11.312 19.664 15.792 30.992 10.016 11.328-5.808 15.792-19.696 10.016-31.024zM743.872 369.44c-5.808-11.312-19.68-15.792-31.008-10.016-11.312 5.792-15.808 19.664-10 31.008 5.776 11.296 19.664 15.792 30.992 10 11.312-5.808 15.808-19.68 10.016-30.992zM773.504 454.832c-2.096-12.528-13.968-21.024-26.496-18.928-12.544 2.112-21.024 13.984-18.944 26.496 2.112 12.544 13.968 21.024 26.496 18.944 12.56-2.096 21.040-13.968 18.944-26.512zM624.816 499.936c0-62.307-50.509-112.816-112.816-112.816s-112.816 50.509-112.816 112.816c0 62.307 50.509 112.816 112.816 112.816s112.816-50.509 112.816-112.816zM901.296 928h-794.592c-14.752 0-26.704-11.952-26.704-26.704v-794.592c0-14.752 11.952-26.704 26.704-26.704h341.296v-112h-210.56c-9.952 0-18.032-6.032-18.032-16 0-9.936 8.080-16 18.032-16h580.912c9.968 0 18.032 6.064 18.032 16 0 9.968-8.064 16-18.032 16h-226.352v112h309.296c14.752 0 26.704 11.952 26.704 26.704v794.592c0 14.752-11.952 26.704-26.704 26.704zM512 182.272c-175.168 0-317.664 142.496-317.664 317.664s142.496 317.664 317.664 317.664 317.664-142.512 317.664-317.664-142.496-317.664-317.664-317.664zM836.992 129.008c-14 0-25.344 11.344-25.344 25.344 0 13.984 11.344 25.328 25.344 25.328 13.968 0 25.312-11.344 25.312-25.328 0.016-14-11.328-25.344-25.312-25.344z" />
<glyph unicode="&#xe91b;" glyph-name="Icons_Icon_H2642" d="M334.912 720h-252.736c-10.032 0-18.176-8.144-18.176-18.176v-27.664c0-10.016 8.144-18.16 18.176-18.16h251.664c10.016 0 18.16 8.144 18.16 18.176v27.664c0 10.016-7.056 18.16-17.088 18.16zM334.912 640h-252.736c-10.032 0-18.176-8.144-18.176-18.192v-27.632c0-10.032 8.144-18.176 18.176-18.176h251.664c10.016 0 18.16 8.144 18.16 18.192v27.632c0 10.032-7.056 18.176-17.088 18.176zM128 816v23.952c0 38.576 33.408 69.984 72 69.984s72-31.408 72-69.984v-23.952h32v23.952c0 56.272-47.712 102.048-104 102.048s-104-45.776-104-102.048v-23.952h32zM333.824 800h-251.648c-10.032 0-18.176-8.144-18.176-18.176v-27.664c0-10.016 8.144-18.16 18.176-18.16h251.664c10.016 0 18.16 8.144 18.16 18.176v27.664c0 10.016-8.144 18.16-18.176 18.16zM598.752 370c-15.104 0.944-26.256-4.752-38.496-15.248l-0.256-16.128c0-15.424 4.272-26.4 10.976-35.36s19.936-14.64 29.68-14.64c10.256 0 19.12 3.888 24.672 11.68s8.8 17.936 8.8 30.432c0 11.824-2.736 21.248-8.688 28.256s-15.872 10.336-26.688 11.008zM384 736h-22.864c-1.664-2.208-3.504-4.256-5.616-6 7.552-6.272 12.48-15.616 12.48-26.176v-27.664c0-10.56-4.928-19.904-12.464-26.176 7.536-6.272 12.464-15.616 12.464-26.176v-27.632c0-18.832-20.672-36.176-39.52-36.176h-251.648c-18.848 0-28.832 17.344-28.832 36.192v27.632c0 10.56 4.928 19.904 12.464 26.192-7.536 6.256-12.464 15.6-12.464 26.16v27.664c0 10.56 4.928 19.904 12.464 26.176-2.112 1.728-3.952 3.776-5.6 5.984h-38.864v-752h960v752h-592zM128 32h-80v80h80v-80zM240 32h-64v80h64v-80zM352 32h-64v80h64v-80zM368 272h-32v80h-96v-80h-32v176h32v-80h96v80h32v-176zM624 688h80v-80h-80v80zM800 336v-16h-16v-48h-32v48h-80v7.872l84 120.128h28v-112h16zM512 688h80v-80h-80v80zM400 688h80v-80h-80v80zM399.376 402.128c-0.416 14.832 4.544 28.080 14.88 38.368s24.368 15.776 42.128 15.776c16.256 0 29.040-4.336 38.368-13.328s14-20.544 14-34.8c0-9.6-2.64-18.928-7.936-28.080-5.296-9.168-13.36-20.64-24.192-34.464l-45.872-55.376 0.256-2.224h80.992v-16h-112v16.88l57.568 68.128c10.176 12.336 17.28 22.144 20.912 29.44 3.632 7.28 5.552 14.64 5.552 22.064 0 8.4-2.384 15.312-7.328 20.688-4.912 5.376-11.664 8.064-20.336 8.064-10.752 0-18.928-4.672-24.544-11.248-5.648-6.608-8.448-10.016-8.448-26.016h-23.744l-0.256 2.128zM480 32h-80v80h80v-80zM592 32h-80v80h80v-80zM558 286c-13.936 14.432-22 30.16-22 52.336l0.992 44.992c0 21.328 5.552 36.752 17.664 50.672 12.128 13.904 35.616 22.624 53.36 22.624 7.168 0 13.424-0.72 20.416-2.128 7.008-1.424 12.384-3.216 16.96-5.376l-5.456-18.88c-4.752 2.080-9.84 3.76-15.088 5.056-5.248 1.28-11.44 1.936-18.432 1.936-11.424 0-25.264-5.248-32.384-15.008s-14.032-21.696-14.032-36.592v-14.128c13.504 8.496 15.040 9.072 22 12 6.96 2.912 16.4 4.368 24.4 4.368 15.664 0 29.040-5.248 38.176-15.744s14.176-24.304 14.176-41.376c0-18.672-4.864-33.568-15.056-44.688s-22.208-16.688-39.536-16.688c-16.832 0-34.288 4.32-46.16 16.624zM704 32h-80v80h80v-80zM816 32h-80v80h80v-80zM816 608h-80v80h80v-80zM928 32h-80v80h80v-80zM928 608h-80v80h80v-80zM704 336h48v64z" />
<glyph unicode="&#xe91c;" glyph-name="Icons_icon-inboxcv" d="M777.92 896h-153.92v-64h113.6l217.744-496h-248.784l-112.64-112h-163.84l-112.64 112h-248.784l217.744 496h113.6v64h-153.92l-246.080-564.496v-395.504h1024v395.504zM512 339.2l204.8 204.8h-140.8v416h-128v-416h-140.8z" />
<glyph unicode="&#xe91d;" glyph-name="Icons_Icon_info" d="M512 613.328c13.024 0 23.616 10.592 23.616 23.616v59.056c0 13.024-10.576 23.616-23.616 23.616s-23.632-10.576-23.632-23.616v-59.040c0-13.040 10.608-23.632 23.632-23.632zM512 152.752c13.024 0 23.616 10.576 23.616 23.632v307.040c0 13.024-10.576 23.616-23.616 23.616s-23.632-10.576-23.632-23.616v-307.040c0-13.056 10.608-23.632 23.632-23.632zM512-48c268.864 0 496 227.12 496 496s-227.136 496-496 496-496-227.12-496-496 227.136-496 496-496zM512 896.752c243.264 0 448.768-205.504 448.768-448.752s-205.504-448.752-448.768-448.752c-243.248 0-448.768 205.504-448.768 448.752s205.52 448.752 448.768 448.752z" />
<glyph unicode="&#xe91e;" glyph-name="Icons_icon-lockedcv" d="M304 637.872c0 115.76 92.256 209.952 207.984 209.952 115.776 0 208.016-94.176 208.016-209.952v-61.872h96v61.872c0 168.8-135.2 306.128-304 306.128-168.816 0-304-137.312-304-306.128v-61.872h96v61.872zM883.856 544h-743.696c-30.128 0-60.16-20.128-60.16-50.224v-64.096c0-30.080 30.032-61.68 60.16-61.68h743.696c30.112 0 60.144 31.568 60.144 61.68v64.096c0 30.096-30.032 50.224-60.144 50.224zM883.856 336h-743.696c-30.128 0-60.16-23.68-60.16-53.824v-64.064c0-30.096 30.032-58.112 60.16-58.112h743.696c30.112 0 60.144 28.016 60.144 58.112v64.064c0 30.112-30.032 53.824-60.144 53.824zM883.856 128h-743.696c-30.128 0-60.16-27.296-60.16-57.424v-64.064c0-30.080 30.032-54.512 60.16-54.512h743.696c30.112 0 60.144 24.432 60.144 54.512v64.064c0 30.128-30.032 57.424-60.144 57.424z" />
<glyph unicode="&#xe91f;" glyph-name="Icons_icon-mapcv" d="M819.328 636.672c0 169.728-137.6 307.328-307.328 307.328s-307.328-137.6-307.328-307.328c0-38.4 7.376-75.008 20.24-108.88h-0.192l0.592-1.088c7.072-18.496 15.856-36.096 26.24-52.672l260.448-522.032 260.448 522.032c10.384 16.624 19.168 34.176 26.288 52.672l0.496 1.088h-0.144c12.848 33.888 20.24 70.496 20.24 108.88zM512 478.448c-84.016 0-152.176 68.096-152.176 152.128s68.144 152.176 152.176 152.176 152.176-68.096 152.176-152.128-68.16-152.176-152.176-152.176z" />
<glyph unicode="&#xe920;" glyph-name="Icons_Icon_Mapposition" d="M574.496 682.304c0-36.954-29.958-66.912-66.912-66.912s-66.912 29.958-66.912 66.912c0 36.954 29.958 66.912 66.912 66.912s66.912-29.958 66.912-66.912zM615.792 685.2c0-57.632-48.604-104.352-108.56-104.352s-108.56 46.72-108.56 104.352c0 57.632 48.604 104.352 108.56 104.352s108.56-46.72 108.56-104.352zM917.28 944h-810.576c-34.4 0-58.704-19.904-58.704-54.336v-675.472c0-34.448 24.304-70.192 58.704-70.192h266.752l131.648-207.84 131.6 207.84h280.576c34.432 0 58.72 35.744 58.72 70.192v675.472c0 34.432-24.288 54.336-58.72 54.336zM304 777.568c0 20.944 13.648 38.432 35.44 38.432h70.016l29.76 48.048c6.96 12.048 20.192 15.952 34.528 15.952h67.040c14.352 0 27.616-3.904 34.56-15.984l29.728-48.016h69.968c21.808 0 44.96-17.488 44.96-38.432v-189.728c0-20.992-23.136-43.84-44.96-43.84h-335.6c-21.792 0-35.44 22.864-35.44 43.84v189.728zM912 270.336c0-8.992-1.984-14.32-5.392-22.016-11.216-16.576-30.208-24.32-51.712-24.32h-692.752c-34.448 0-66.144 21.6-66.144 56.032v124.688c0 19.824 11.312 37.28 25.744 48.704 9.92 6.672 23.76 10.576 36.624 10.576h691.248c34.464 0 62.384-27.904 62.384-62.336v-131.328z" />
<glyph unicode="&#xe921;" glyph-name="Icons_icon-moves-mackcv" d="M610.96 474.912l-1.136-0.768-1.184-0.672c-14.192-8.032-29.36-12.096-45.088-12.096-25.024 0-50.144 9.808-79.008 30.864l-37.808 27.6 39.44 25.216 124.512 78.944h-114.688v69.488l-52.592 58.512h-443.408v-768h960v256.048l-272.736 287.152-76.304-52.288zM384 704h80v-80h-80v80zM112 32h-80v80h80v-80zM112 624h-80v80h80v-80zM224 32h-64v80h64v-80zM224 624h-64v80h64v-80zM336 32h-64v80h64v-80zM336 624h-64v80h64v-80zM464 32h-80v80h80v-80zM576 32h-80v80h80v-80zM832 112h80v-80h-80v80zM720 112h80v-80h-80v80zM688 32h-80v80h80v-80zM619.312 592.224v0l-115.92-74.144c3.344-2.448 6.688-4.704 10.032-6.864 0.832-0.528 1.664-1.056 2.48-1.568 3.344-2.080 6.688-4.064 10.016-5.792 0.032-0.016 0.080-0.032 0.112-0.048 3.312-1.728 6.624-3.2 9.936-4.528 0.848-0.336 1.68-0.672 2.544-0.992 3.184-1.184 6.368-2.224 9.552-2.992 0.176-0.032 0.336-0.096 0.48-0.128 3.264-0.768 6.528-1.216 9.792-1.488 0.864-0.080 1.712-0.128 2.56-0.16 0.88-0.032 1.744-0.16 2.624-0.16 2.304 0 4.592 0.16 6.896 0.432 0.128 0.016 0.272 0 0.384 0.016 3.28 0.416 6.528 1.232 9.792 2.256 0.8 0.256 1.616 0.528 2.4 0.816 3.28 1.184 6.56 2.56 9.84 4.416l196.512 134.656 51.744-30.256c-15.936-16.72-25.456-40.576-24.88-67.152 0.832-49.792 37.232-89.52 81.392-88.656 44.192 0.928 79.36 42 78.336 91.744-0.816 47.984-34.752 86.592-76.608 88.496l-61.792 38.992 57.36 39.552c43.264 2.080 77.328 42.672 76.384 91.712-0.848 49.536-37.488 89.376-81.6 88.464-44.192-0.864-79.072-42.032-78.224-91.536 0.528-25.792 10.352-48.864 26.192-65.136l-49.536-31.744-201.104 127.28c-29.856 15.392-59.392 2.928-88.752-20.192l238.192-140.384-117.136-74.912zM894.992 595.44c27.168 0.384 49.504-23.744 50.064-54.368 0.448-30.624-20.896-55.76-47.984-56.256-26.944-0.464-49.584 23.696-50.016 54.336-0.64 30.56 21.024 55.744 47.936 56.288zM890.368 854.128c27.12 0.608 49.392-23.92 50.016-54.512 0.56-30.384-20.784-55.728-48.080-56.32-26.88-0.448-49.344 24-49.952 54.48-0.496 30.592 21.056 55.808 48.016 56.352zM791.216 689.040c9.728 0.288 17.744-8.736 17.968-19.68 0.192-10.976-7.616-20.272-17.216-20.384-9.952-0.272-18.032 8.784-18.224 19.712-0.224 10.912 7.488 20.192 17.472 20.352z" />
<glyph unicode="&#xe922;" glyph-name="Icons_icon-multiveiwcv" d="M528 752v-288h432v288h-432zM928 496h-368v224h368v-224zM64 464h432v288h-432v-288zM96 720h368v-224h-368v224zM528 144h432v288h-432v-288zM560 400h368v-224h-368v224zM64 144h432v288h-432v-288zM96 400h368v-224h-368v224z" />
<glyph unicode="&#xe923;" glyph-name="Icons_icon-notifcv02" d="M578.864 672c-66.768 0-133.568 0-200.336 0-96.896 0-193.824 3.248-290.736 3.152-41.296-0.064-71.792-29.408-71.792-70.368 0.096-116.72 0.064-235.488 0.064-352.192 0-44.24 30.128-76.592 74.288-76.592 10.272 0 21.648 0 37.648 0 0-48 0-86.976 0-135.392 0 5.264 4.32 8.336 6.88 11.504 32.4 40.464 63.456 80.88 95.632 121.552 4.624 5.872 8.624 8.32 16.272 8.304 111.168-0.272 222-0.208 333.2-0.192 43.984 0.016 74.192 30.56 74.192 74.72 0.032 115.712-0.096 228.288-0.096 344-0.016 44.848-30.080 71.504-75.216 71.504zM939.632 855.232c-143.232 0.24-286.432 0.192-429.664 0.032-32.352-0.032-63.12-20.256-66.832-52.112-3.28-28-0.704-67.152-0.704-83.152 4.288 0 8.144 0 12 0 53.152 0 106.288-3.264 159.456-3.296 44.896-0.032 74.592-31.76 74.592-76.416 0.032-65.824-0.48-133.248-0.48-199.008 0-3.456 0-6.928 0-11.2 32 0 61.104-0.16 90.832 0.16 6.080 0.064 10.352-1.616 14.176-6.496 21.2-27.008 42.896-53.744 64.336-80.528 14.064-17.568 25.216-35.104 39.28-52.656l-0.624 0.704c0 46.064 0 92.112 0 138.912 16 0 29.616-0.4 42.192 0.064 36.672 1.376 68.224 32.4 68.256 68.96 0.096 95.6 0.8 191.168 0.736 286.768-0.016 37.6-30.016 69.2-67.552 69.264z" />
<glyph unicode="&#xe924;" glyph-name="Icons_icon-PlayButton" d="M392.72 661.664l330.112-213.664-330.112-213.664zM512 901.824c250.672 0 454.064-203.28 454.064-453.824s-203.392-453.824-454.064-453.824-454.064 203.28-454.064 453.824 203.392 453.824 454.064 453.824zM512 920.72c-261.072 0-472.992-211.776-472.992-472.72s211.92-472.72 472.992-472.72 472.992 211.776 472.992 472.72-211.92 472.72-472.992 472.72z" />
<glyph unicode="&#xe925;" glyph-name="Icons_Icon_SavedtoSD" d="M256 946.864l-187.92-232.112c-2.688-2.992-0.144-6.784-0.784-10.752h188.704v242.864zM608 896h32v-64h-32v64zM656 896h32v-64h-32v64zM560 896h32v-64h-32v64zM528 692.112v-116.112h208v116.112c0 7.744-9.904 11.888-17.616 11.888h-181.248c-7.744 0-9.136-4.144-9.136-11.888zM512 896h32v-64h-32v64zM272 128v256c0 58.848 55.824 112 114.656 112h445.344v442.656c0 11.776-6.944 21.344-18.672 21.344h-493.328v-277.344c0-11.76-6.896-26.656-18.672-26.656h-237.328v-698.656c0-11.744 12.208-21.344 24-21.344h744v80h-445.344c-58.832 0-114.656 53.152-114.656 112zM480 884.976c0 14.992 11.136 27.024 26.128 27.024h205.2l2.816-2.72 69.856-65.552v-277.68c0-7.504-4.128-10.448-10.112-14.096-4.976-6.352-12.64-7.952-21.312-7.952h-246.448c-14.992 0-26.128 7.056-26.128 22.048v318.928zM960 384c0 35.344-28.656 64-64 64h-512c-35.344 0-64-28.656-64-64v-256c0-35.344 28.656-64 64-64h512c35.344 0 64 28.656 64 64v256zM528 240h-3.6c0-16-1.136-20.848-3.504-28.336-2.272-7.392-5.664-15.2-10.16-20.304-4.432-5.088-9.936-9.792-16.592-12.544-6.56-2.688-14.080-4.448-22.608-4.448-7.616 0-15.456 0.816-23.68 3.072 0.128 2.256 0.336 4.336 0.608 6.656 0.208 2.224 0.464 4.368 0.752 6.448l1.456 3.232c0.816 0.912 2.048 1.168 3.712 1.168 1.36 0 3.232-0.336 5.584-1.024 2.352-0.672 5.52-0.992 9.44-0.992 5.152 0 9.728 0.768 13.744 2.352 4 1.536 7.408 3.952 10.192 7.248s1.968 7.504 3.376 12.64c1.488 5.104-0.72 11.184-0.72 18.24v102.592h32v-96zM675.696 270.288c-2.688-6.432-6.688-12.032-11.984-16.8-5.28-4.688-11.776-7.616-19.632-10.256-7.824-2.656-16.752-3.232-26.832-3.232h-25.248v-64h-32v160h57.248c10.56 0 19.84 2.72 27.68 0.128 7.888-2.432 14.384-4.032 19.504-8.528 5.152-4.432 9.056-8.992 11.568-15.44 2.592-6.4 3.84-13.072 3.84-20.976 0-7.76-1.456-14.4-4.144-20.896zM832.368 184.16c-4.48-2.336-9.472-4.24-14.64-5.744-5.2-1.504-10.8-2.656-16.816-3.376-5.92-0.784-12.336-1.056-19.296-1.056-12.144 0-23.36 2.064-33.472 6.224-10.176 4.256-18.912 10.032-26.256 17.632-7.344 7.536-13.104 16.624-17.12 27.12-4.096 10.576-6.224 22.192-6.224 34.784 0 12.848 2 24.496 6.064 35.024 4.080 10.528 9.76 19.584 17.184 27.12 7.552 7.568 16.56 13.36 27.12 17.552 10.576 4.144 22.4 6.24 35.6 6.24 6.608 0 12.848-0.528 18.496-1.472 5.76-0.944 11.008-2.368 15.904-4.224 4.88-1.84 9.408-4.096 13.504-6.704 4.192-2.64 8.016-5.504 11.568-8.832l-6.4-10.288c-1.312-2.128-3.024-3.152-5.152-3.152-1.232 0-2.64 0.4-4.144 1.264-1.952 1.040-4.192 2.448-6.512 4.016-2.464 1.536-5.344 3.056-8.848 4.48-3.488 1.424-7.648 2.688-12.32 3.664s-10.304 1.504-16.864 1.504c-9.488 0-18-1.504-25.68-4.56-7.68-3.088-14.176-7.52-19.584-13.312-5.424-5.776-9.616-12.688-12.416-20.784-2.864-8.16-4.384-17.312-4.384-27.568 0-10.624 1.504-20.096 4.512-28.416 2.944-8.32 7.264-15.36 12.672-21.152 5.52-5.792 11.92-10.16 19.504-13.312 7.536-2.992 15.744-4.528 24.848-4.528 4.432 0 8.656 0.272 12.496 0.736 3.744 0.416 7.328 1.008 10.704 1.904 3.376 0.912 10.128 1.936 13.072 3.088 2.976 1.184-3.488 2.64 12.512 4.192v37.776h-33.152c-1.472 0 0.336 0.096-0.576 0.912l1.728 2.768v12.32h45.552l0.080-64.16c-4.304-3.008-8.608-5.424-13.264-7.68zM617.248 320h-25.248v-64h25.248c6.432 0 12.16 1.248 17.152 3.008 4.896 1.712 9.072 4.336 12.496 7.408 3.328 3.008 5.872 6.784 7.584 11.184 1.744 4.304 2.64 9.040 2.64 14.208 0 10.72-3.312 16.192-9.888 22.208-6.56 5.904-16.672 5.984-29.984 5.984z" />
<glyph unicode="&#xe926;" glyph-name="Icons_Icon_SD" d="M730.256 944h-555.552c-32.848 0-59.52-26.656-59.52-59.52v-872.96c0-32.864 26.672-59.52 59.52-59.52h674.576c32.848 0 59.52 26.656 59.52 59.52v753.92l-178.544 178.56zM631.040 904.32h59.504v-128.96h-59.504v128.96zM531.84 904.32h59.52v-128.96h-59.52v128.96zM432.64 904.32h59.52v-128.96h-59.52v128.96zM333.44 904.32h59.52v-128.96h-59.52v128.96zM234.256 904.32h59.488v-128.96h-59.488v128.96zM234.256 23.664v327.36c0 16.432 13.328 29.76 29.744 29.76h496c16.416 0 29.776-13.328 29.776-29.76v-327.36h-555.52zM789.776 725.744h-59.52v162.128l59.52-59.52v-102.608z" />
<glyph unicode="&#xe927;" glyph-name="Icons_icon-settingcv" d="M1008 361.904v133.536l-94.080 11.328c-10.24 50.976-30.304 98.368-58.128 140.176l58.512 74.592-94.384 94.432-74.592-58.56c-41.84 27.792-89.216 47.888-140.176 58.096l-11.344 94.128h-133.536l-11.36-94.128c-34.112-6.832-66.544-18.176-96.816-33.168l92.128-101.344c26.064 8.56 53.856 13.376 82.864 13.376 146.672 0 265.648-118.96 265.648-265.664 0-146.736-118.976-265.68-265.648-265.68-146.768 0-265.712 118.96-265.712 265.68 0 31.136 5.664 60.912 15.504 88.704l-105.968 81.328c-13.808-28.896-24.256-59.68-30.752-91.952l-94.080-11.328v-133.536l94.096-11.36c10.24-50.976 30.272-98.352 58.128-140.192l-58.544-74.608 94.384-94.368 74.624 58.528c41.808-27.808 89.184-47.888 140.128-58.112l11.36-94.096h133.536l11.344 94.096c50.96 10.224 98.352 30.304 140.176 58.112l74.592-58.528 94.384 94.368-58.512 74.608c27.792 41.824 47.888 89.216 58.128 140.192l94.096 11.344zM59.072 931.696l-26.512-26.512c-22.064-22.080-22.064-58.272 0-80.352l373.12-356.704c-22.8-50.496-19.008-111.408 15.616-159.68 35.12-49.056 92.816-72.352 148.832-66l-79.536 110.944c-13.616 19.040-9.2 45.76 9.872 59.424l57.792 41.376c19.040 13.632 45.776 9.216 59.392-9.792l79.504-110.976c24 50.96 20.528 113.040-14.624 162.128-42.24 58.944-116.976 80.608-182.288 58.368-2.080 2.64-4.336 5.232-6.8 7.696l-353.984 370.080c-22.112 22.112-58.288 22.112-80.384 0zM130.704 884.192c14.016-13.984 14.016-36.672 0-50.624-13.952-14-36.64-14-50.624 0-13.952 13.952-13.952 36.64 0.032 50.608 13.984 14 36.64 14 50.592 0.016z" />
<glyph unicode="&#xe928;" glyph-name="Icons_icon-sitecv" d="M716.256 827.312c0-77.792 0-233.424 0-233.424h-175.072v175.072l-233.408-175.072v175.072l-233.44-175.072c-25.856-19.392-58.336-29.168-58.336-87.52v-437.664c0-32.336 26.032-58.352 58.336-58.352h875.312c32.336 0 58.336 26.032 58.336 58.352v466.848c0 32.336-26 58.352-58.336 58.352h-116.72c0 0 0 155.616 0 233.408 0 29.168-30.832 58.336-58.336 58.336-27.536 0.016-58.336-29.168-58.336-58.336z" />
<glyph unicode="&#xe929;" glyph-name="Icons_Icon_SoftwareUpdate_Available" d="M285.984 531.392l-71.296 14.352c9.872 31.008 26.544 63.536 47.008 90.752 22 28.768 49.312 54.48 80.432 74.144 31.056 19.68 65.984 34.032 102.368 42.352 36.4 8.336 74.32 9.088 112.256 4.544l6.848-0.752 8.336-1.52 11.376-2.272 6.064-1.52h1.504l1.568-0.736 3.776-0.752 14.368-4.56c10.656-3.040 18.192-6.8 27.328-10.576 9.072-3.024 17.44-8.32 25.76-12.112 8.336-3.808 16.688-9.84 25.056-14.368l6.064-3.808c2.256-1.488 3.808-2.992 6.064-4.496l11.344-9.088c15.2-12.096 28.848-24.96 41.712-39.344 3.024-3.776 6.096-7.552 9.12-11.344l9.088-11.328c3.024-3.776 5.296-7.584 8.352-12.096l7.584-12.128 2.288-3.008 1.504-3.024 3.776-6.048 6.848-12.88c4.56-9.088 7.568-18.128 12.128-26.464 3.808-9.088 6.064-18.112 9.12-27.968 2.224-9.856 4.512-18.944 6.784-28.736 1.536-9.84 3.072-19.696 4.56-29.504 0.784-9.056 1.52-18.144 1.52-27.216l48.544-9.84-134.256-87.008-90.992 131.632 43.952-9.056c0 3.008-0.72 6.048-0.72 9.056l-3.056 18.16c-1.472 6.048-3.024 12.128-4.56 17.392-2.272 6.048-3.776 11.344-6.064 17.408l-3.808 8.32-1.472 4.528-0.768 2.272-0.784 1.488-4.544 8.352c-1.472 3.024-3.024 5.296-4.544 8.32l-5.296 7.552c-1.504 2.24-3.040 5.312-5.328 7.552-7.568 9.824-15.92 19.68-24.992 27.984l-6.832 6.064c-1.504 0.752-2.32 2.256-3.792 3.008l-3.792 3.040c-5.312 3.792-9.872 7.584-15.184 11.344-5.28 3.024-10.592 6.816-15.872 9.824-5.36 3.024-11.408 6.048-16.72 7.552-2.288 0.768-5.296 2.304-7.616 3.040l-1.52 0.768-0.752 0.752-1.536 0.752-6.064 1.504-11.344 3.040-3.024 0.768-1.536 0.768-3.808 0.72c-25.024 6.064-51.552 6.832-77.344 3.792-25.776-3.024-51.568-11.344-75.072-24.224-23.52-12.080-45.52-29.488-62.96-49.136-15.152-16.688-27.296-35.568-37.152-55.984zM682.64 228.096c-28.032-18.912-59.136-33.264-91.008-40.864-32.576-7.536-65.968-9.792-97.808-6.016l-6.064 0.72-6.080 0.8-6.080 0.752c-2.256 0-3.776 0.752-6.048 1.504-3.792 0.752-7.616 1.488-11.392 3.040-3.776 0.736-7.6 2.24-11.408 3.024-15.136 4.528-30.32 11.344-44.72 18.928-28.848 15.072-53.84 34.768-75.088 58.976-21.216 23.44-37.184 51.424-48.56 80.144-6.8 17.424-10.608 34.784-13.632 52.976l42.48-4.576-66.752 80.176-82.672-64.288 38.672-3.776c4.544-28.736 13.648-57.504 25.792-83.968 16.656-34.784 39.408-65.776 66.72-92.256s59.184-47.664 93.312-62.016c17.44-7.584 34.88-12.88 53.088-17.424 4.544-0.752 9.088-2.272 13.664-2.992 4.544-0.8 9.088-1.52 13.632-2.288 2.304 0 4.576-0.752 6.864-0.752l6.8-0.768 6.848-0.752h6.816c37.184-1.488 73.6 3.76 108.448 15.12 34.144 11.36 66.752 29.52 94.080 52.176 22.752 18.928 43.248 40.864 59.152 65.808l-12.128 1.552c-15.936-19.664-35.696-37.84-56.928-52.96z" />
<glyph unicode="&#xe92a;" glyph-name="Icons_Icon_SoftwareUpdate_Downloaded" d="M769.344 464h-36.784c-20.336 0-44.56-9.232-44.56-29.504v-36.64c0-36.672-28.96-29.856-28.96-29.856h-294.080c-36.752 0-28.96 29.872-28.96 29.872v36.64c0 20.256-24.224 29.488-44.56 29.488h-36.752c-20.352 0-30.688-9.232-30.688-29.504v-146.624c0-20.24 10.336-31.872 30.688-31.872h514.656c20.32 0 30.656 11.632 30.656 31.872v146.624c0 20.272-10.336 29.504-30.656 29.504zM622.304 544h-78.304v183.792c0 20.256-11.696 36.656-32.016 36.656s-31.984-16.4-31.984-36.656v-183.792h-78.304l110.304-146.656 110.304 146.656zM512 941.408c-272.768 0-494.672-221.344-494.672-493.408s221.904-493.408 494.672-493.408 494.672 221.344 494.672 493.408-221.904 493.408-494.672 493.408zM512 26.112c-233.328 0-423.168 189.248-423.168 421.888s189.84 421.888 423.168 421.888 423.168-189.248 423.168-421.888-189.84-421.888-423.168-421.888z" />
<glyph unicode="&#xe92b;" glyph-name="Icons_Icon_SoftwareUpdate_UpToDate" d="M786.256 696.144c0 0-126.752-114.864-221.008-238.912-98.56-129.664-144.512-270.096-171.888-268.544-37.168 2.656-81.376 246.256-152.432 217.344-15.008 3.728 25.584 62.752 82.288 49.424 35.552-8.352 80.448-86.768 80.448-86.768s213.52 308.256 373.248 338.656l9.344-11.2z" />
<glyph unicode="&#xe92c;" glyph-name="Icons_icon-userscv" d="M678.176 177.856v-1.616c0-2.72 0-9.12-0.304-17.136-99.984-46.24-212.336-72.224-331.088-72.224-118.432 0-230.48 25.808-330.208 71.808-0.304 8.256-0.304 14.88-0.304 17.616 0 2.96 0 4.688 0 4.688h0.064c-0.24 4.112-0.352 8.64-0.336 13.408-0.416 36.432 8.336 91.936 62.976 105.392 82.8 20.4 153.808 54.848 154.32 55.072 6.768 11.184 10.32 27.296 12.096 38.784-21.152 27.68-30.96 60.928-35.312 89.456-7.776 0.624-18.032 11.68-29.088 51.136-14.144 50.624-0.928 60.8 11.984 60.8l2.56-0.144c-9.984 28.336-10.192 56.256-3.504 82.048 7.040 30.4 23.264 54.736 41.488 73.568 11.504 12.368 24.544 23.2 38.368 32.064 11.248 7.904 23.68 14.688 37.296 19.328v0.016c10.624 3.632 21.92 5.968 33.888 6.528 5.024 0.432 9.872 0.656 14.544 0.656 29.872 0 53.168-8.4 70.544-18.832 30.064-16.768 41.44-38.96 41.44-38.96s75.568-5.376 42.496-165.6c10.176-3.568 17.344-17.664 5.552-59.776-11.376-40.672-21.952-51.168-29.808-51.168-2.144 0-4.096 0.8-5.792 1.968-4.672-26.496-14.192-56.24-32.96-81.584 1.888-12.752 6.016-32.208 14.64-43.696 0 0 68.912-31.2 152.016-51.664 54.512-13.456 63.344-68.704 63.008-105.12 0.016-6.144-0.224-11.84-0.576-16.816zM1008 288.576c0.288 30.864-7.2 77.68-53.376 89.040-70.368 17.344-128.768 43.792-128.768 43.792-7.296 9.712-10.8 26.224-12.4 36.992 15.904 21.488 23.952 46.672 27.904 69.104 6.704-4.64 17.888-2.208 30.176 41.68 9.968 35.664 3.888 47.632-4.72 50.64 28.048 135.728-36 140.288-36 140.288s-9.664 18.8-35.088 32.992c-17.056 10.224-40.784 18.144-72.112 15.408-10.144-0.48-19.696-2.464-28.704-5.552-11.52-3.952-22.048-9.664-31.6-16.368-11.68-7.488-22.752-16.672-32.496-27.168-15.44-15.936-29.184-36.544-35.152-62.304-5.664-21.872-5.472-45.488 2.992-69.536-11.504 1.104-25.072-5.664-12.304-51.392 9.344-33.408 18.064-42.784 24.624-43.312 3.696-24.176 12.016-52.32 29.92-75.776-1.52-9.712-4.512-23.376-10.256-32.848-0.416-0.224-60.576-29.376-130.72-46.672-2.848-0.704-5.536-1.552-8.112-2.512 23.856-9.824 74.464-29.36 131.76-43.472 55.808-13.744 87.712-62.592 87.936-134.176 5.088-0.144 10.16-0.192 15.28-0.192 100.624 0 195.808 22 280.496 61.184 0.24 6.784 0.256 12.24 0.24 14.496v1.392c0.288 4.272 0.512 9.088 0.48 14.272z" />
<glyph unicode="&#xe92d;" glyph-name="Icons_Icon_wifi" d="M489.584-37.376c-266.656 0-483.616 216.944-483.616 483.6s216.96 483.584 483.616 483.584 483.6-216.944 483.6-483.584c-0.016-266.656-216.944-483.6-483.6-483.6zM489.584 859.808c-228.064 0-413.616-185.536-413.616-413.584 0-228.064 185.552-413.6 413.616-413.6s413.6 185.536 413.6 413.6c-0.016 228.048-185.536 413.584-413.6 413.584zM489.072 638.176c-121.824 0-231.808-50.544-310.32-131.68l71.952-71.968c60.16 62.8 144.736 102.016 238.352 102.016 93.584 0 178.208-39.216 238.336-102.016l71.952 71.968c-78.448 81.136-188.448 131.68-310.272 131.68zM489.072 333.36c-37.6 0-71.344-16.544-94.64-42.592l94.64-94.608 94.624 94.608c-23.328 26.048-57.008 42.592-94.624 42.592zM286.624 398.624l71.936-71.936c32.48 35.232 78.928 57.456 130.512 57.456s97.984-22.224 130.48-57.456l71.952 71.936c-50.96 53.6-122.832 87.152-202.432 87.152-79.616 0-151.504-33.52-202.448-87.152z" />
</font>
</defs>
</svg>
